SplineFontDB: 3.0
FontName: Monaco
FullName: Monaco Regular
FamilyName: Monaco
Weight: Book
Copyright: (c) 1990-97 Apple Computer Inc. (c) 1990-97 Type Solutions Inc. (c) 1990-97 The Font Bureau Inc.
Version: 2.0
ItalicAngle: 0
UnderlinePosition: -153
UnderlineWidth: 102
Ascent: 1614
Descent: 434
sfntRevision: 0x00020000
LayerCount: 2
Layer: 0 1 "Back"  1
Layer: 1 1 "Fore"  0
NeedsXUIDChange: 1
XUID: [1021 821 1038997196 1776380]
FSType: 0
OS2Version: 1
OS2_WeightWidthSlopeOnly: 0
OS2_UseTypoMetrics: 1
CreationTime: 1334714459
ModificationTime: 1334715410
PfmFamily: 17
TTFWeight: 400
TTFWidth: 5
LineGap: 0
VLineGap: 0
Panose: 2 11 5 9 3 4 4 4 2 4
OS2TypoAscent: 0
OS2TypoAOffset: 1
OS2TypoDescent: 0
OS2TypoDOffset: 1
OS2TypoLinegap: 0
OS2WinAscent: 0
OS2WinAOffset: 1
OS2WinDescent: 40
OS2WinDOffset: 1
HheadAscent: 0
HheadAOffset: 1
HheadDescent: -40
HheadDOffset: 1
OS2SubXSize: 1640
OS2SubYSize: 1229
OS2SubXOff: 204
OS2SubYOff: 410
OS2SupXSize: 1640
OS2SupYSize: 1229
OS2SupXOff: 204
OS2SupYOff: 644
OS2StrikeYSize: 155
OS2StrikeYPos: 528
OS2FamilyClass: 2048
OS2Vendor: 'APPL'
OS2CodePages: 20000093.00000000
OS2UnicodeRanges: 00000007.00000000.00000000.00000000
DEI: 91125
TtTable: prep
PUSHW_1
 511
SCANCTRL
PUSHB_1
 1
SCANTYPE
SVTCA[y-axis]
MPPEM
PUSHB_1
 8
LT
IF
PUSHB_2
 1
 1
INSTCTRL
EIF
PUSHB_2
 70
 6
CALL
IF
POP
PUSHB_1
 16
EIF
MPPEM
PUSHB_1
 20
GT
IF
POP
PUSHB_1
 128
EIF
SCVTCI
PUSHB_1
 6
CALL
NOT
IF
SVTCA[y-axis]
PUSHB_1
 4
DUP
RCVT
PUSHB_1
 3
CALL
WCVTP
PUSHB_1
 5
DUP
RCVT
PUSHB_3
 4
 73
 2
CALL
PUSHB_1
 3
CALL
WCVTP
PUSHB_1
 6
DUP
RCVT
PUSHW_3
 4
 1103
 2
CALL
PUSHB_1
 3
CALL
WCVTP
PUSHB_1
 7
DUP
RCVT
PUSHB_3
 6
 85
 2
CALL
PUSHB_1
 3
CALL
WCVTP
PUSHB_1
 8
DUP
RCVT
PUSHB_3
 7
 72
 2
CALL
PUSHB_1
 3
CALL
WCVTP
PUSHB_1
 9
DUP
RCVT
PUSHB_3
 8
 46
 2
CALL
PUSHB_1
 3
CALL
WCVTP
PUSHB_1
 10
DUP
RCVT
PUSHB_3
 9
 44
 2
CALL
PUSHB_1
 3
CALL
WCVTP
PUSHB_1
 11
DUP
RCVT
PUSHB_3
 10
 19
 2
CALL
PUSHB_1
 3
CALL
WCVTP
PUSHB_1
 12
DUP
RCVT
PUSHB_3
 11
 17
 2
CALL
PUSHB_1
 3

StartChar: .notdef
Encoding: 65536 -1 0
Width: 1229
Flags: W
LayerCount: 2
Fore
SplineSet
250 0 m 1,0,-1
 250 1552 l 1,1,-1
 980 1552 l 1,2,-1
 980 0 l 1,3,-1
 250 0 l 1,0,-1
400 150 m 1,4,-1
 830 150 l 1,5,-1
 830 1402 l 1,6,-1
 400 1402 l 1,7,-1
 400 150 l 1,4,-1
EndSplineSet
EndChar

StartChar: exclam
Encoding: 33 33 4
Width: 1229
GlyphClass: 2
Flags: W
LayerCount: 2
Fore
SplineSet
471 97 m 256,0,1
 471 156 471 156 513.5 198 c 128,-1,2
 556 240 556 240 615 240 c 0,3,4
 673 240 673 240 715.5 198.5 c 128,-1,5
 758 157 758 157 758 97 c 256,6,7
 758 37 758 37 715 -5 c 128,-1,8
 672 -47 672 -47 615 -47 c 0,9,10
 556 -47 556 -47 513.5 -4.5 c 128,-1,11
 471 38 471 38 471 97 c 256,0,1
483 1552 m 1,12,-1
 731 1552 l 1,13,-1
 684 442 l 1,14,-1
 529 442 l 1,15,-1
 483 1552 l 1,12,-1
EndSplineSet
EndChar

StartChar: quotedbl
Encoding: 34 34 5
Width: 1229
GlyphClass: 2
Flags: W
LayerCount: 2
Fore
SplineSet
273 1614 m 1,0,-1
 522 1614 l 1,1,-1
 465 1055 l 1,2,-1
 337 1055 l 1,3,-1
 273 1614 l 1,0,-1
712 1614 m 1,4,-1
 956 1614 l 1,5,-1
 896 1055 l 1,6,-1
 769 1055 l 1,7,-1
 712 1614 l 1,4,-1
EndSplineSet
EndChar

StartChar: numbersign
Encoding: 35 35 6
Width: 1229
GlyphClass: 2
Flags: W
LayerCount: 2
Fore
SplineSet
71 419 m 1,0,-1
 71 559 l 1,1,-1
 267 559 l 1,2,-1
 377 970 l 1,3,-1
 71 970 l 1,4,-1
 71 1109 l 1,5,-1
 412 1109 l 1,6,-1
 529 1552 l 1,7,-1
 675 1552 l 1,8,-1
 558 1109 l 1,9,-1
 841 1109 l 1,10,-1
 963 1552 l 1,11,-1
 1109 1552 l 1,12,-1
 989 1109 l 1,13,-1
 1157 1109 l 1,14,-1
 1157 970 l 1,15,-1
 950 970 l 1,16,-1
 841 559 l 1,17,-1
 1157 559 l 1,18,-1
 1157 419 l 1,19,-1
 802 419 l 1,20,-1
 688 0 l 1,21,-1
 540 0 l 1,22,-1
 656 419 l 1,23,-1
 377 419 l 1,24,-1
 267 0 l 1,25,-1
 119 0 l 1,26,-1
 230 419 l 1,27,-1
 71 419 l 1,0,-1
414 559 m 1,28,-1
 694 559 l 1,29,-1
 807 970 l 1,30,-1
 521 970 l 1,31,-1
 414 559 l 1,28,-1
EndSplineSet
EndChar

StartChar: dollar
Encoding: 36 36 7
Width: 1229
GlyphClass: 2
Flags: W
LayerCount: 2
Fore
SplineSet
161 82 m 1,0,-1
 161 274 l 1,1,2
 227 240 227 240 290.5 216 c 128,-1,3
 354 192 354 192 424.5 178 c 128,-1,4
 495 164 495 164 580 158 c 1,5,-1
 580 715 l 1,6,-1
 473 773 l 1,7,8
 169 936 169 936 169 1167 c 0,9,10
 169 1290 169 1290 270 1406.5 c 128,-1,11
 371 1523 371 1523 580 1541 c 1,12,-1
 580 1707 l 1,13,-1
 720 1707 l 1,14,-1
 720 1541 l 1,15,16
 838 1541 838 1541 999 1500 c 1,17,-1
 999 1327 l 1,18,-1
 964 1337 l 1,19,20
 813 1379 813 1379 720 1388 c 1,21,-1
 720 844 l 1,22,-1
 832 780 l 2,23,24
 990 689 990 689 1048.5 601 c 128,-1,25
 1107 513 1107 513 1107 414 c 0,26,27
 1107 325 1107 325 1062.5 241.5 c 128,-1,28
 1018 158 1018 158 935 98 c 128,-1,29
 852 38 852 38 720 15 c 1,30,-1
 720 -155 l 1,31,-1
 580 -155 l 1,32,-1
 580 2 l 1,33,34
 513 2 513 2 441 9 c 128,-1,35
 369 16 369 16 306 30.5 c 128,-1,36
 243 45 243 45 161 82 c 1,0,-1
370 1190 m 0,37,38
 370 1123 370 1123 416.5 1061.5 c 128,-1,39
 463 1000 463 1000 580 928 c 1,40,-1
 580 1390 l 1,41,42
 479 1367 479 1367 424.5 1314 c 128,-1,43
 370 1261 370 1261 370 1190 c 0,37,38
720 172 m 1,44,45
 829 211 829 211 867.5 267.5 c 128,-1,46
 906 324 906 324 906 394 c 0,47,48
 906 462 906 462 868 510.5 c 128,-1,49
 830 559 830 559 720 632 c 1,50,-1
 720 172 l 1,44,45
EndSplineSet
EndChar

StartChar: percent
Encoding: 37 37 8
Width: 1229
GlyphClass: 2
Flags: W
LayerCount: 2
Fore
SplineSet
2 -47 m 1,0,-1
 1063 1598 l 1,1,-1
 1228 1598 l 1,2,-1
 166 -47 l 1,3,-1
 2 -47 l 1,0,-1
3 1164 m 0,4,5
 3 1336 3 1336 86 1444 c 128,-1,6
 169 1552 169 1552 314 1552 c 256,7,8
 459 1552 459 1552 541.5 1444 c 128,-1,9
 624 1336 624 1336 624 1164 c 0,10,11
 624 991 624 991 541.5 883.5 c 128,-1,12
 459 776 459 776 314 776 c 256,13,14
 169 776 169 776 86 883.5 c 128,-1,15
 3 991 3 991 3 1164 c 0,4,5
159 1164 m 0,16,17
 159 1055 159 1055 196 977.5 c 128,-1,18
 233 900 233 900 314 900 c 0,19,20
 394 900 394 900 431.5 977.5 c 128,-1,21
 469 1055 469 1055 469 1164 c 0,22,23
 469 1272 469 1272 431.5 1349.5 c 128,-1,24
 394 1427 394 1427 314 1427 c 0,25,26
 233 1427 233 1427 196 1349.5 c 128,-1,27
 159 1272 159 1272 159 1164 c 0,16,17
604 388 m 0,28,29
 604 562 604 562 688 669 c 128,-1,30
 772 776 772 776 912 776 c 0,31,32
 1051 776 1051 776 1138 672 c 128,-1,33
 1225 568 1225 568 1225 404 c 0,34,35
 1225 215 1225 215 1133 107.5 c 128,-1,36
 1041 0 1041 0 910 0 c 0,37,38
 782 0 782 0 693 102.5 c 128,-1,39
 604 205 604 205 604 388 c 0,28,29
760 382 m 0,40,41
 760 251 760 251 806 187.5 c 128,-1,42
 852 124 852 124 914 124 c 0,43,44
 980 124 980 124 1025 193 c 128,-1,45
 1070 262 1070 262 1070 392 c 0,46,47
 1070 494 1070 494 1032.5 573 c 128,-1,48
 995 652 995 652 915 652 c 0,49,50
 836 652 836 652 798 576 c 128,-1,51
 760 500 760 500 760 382 c 0,40,41
EndSplineSet
EndChar

StartChar: ampersand
Encoding: 38 38 9
Width: 1229
GlyphClass: 2
Flags: W
LayerCount: 2
Fore
SplineSet
2 383 m 0,0,1
 2 646 2 646 276 874 c 1,2,3
 194 977 194 977 152.5 1066.5 c 128,-1,4
 111 1156 111 1156 111 1233 c 0,5,6
 111 1326 111 1326 160 1414 c 128,-1,7
 209 1502 209 1502 295 1550 c 128,-1,8
 381 1598 381 1598 485 1598 c 0,9,10
 623 1598 623 1598 716 1524 c 128,-1,11
 809 1450 809 1450 809 1312 c 0,12,13
 809 1211 809 1211 752.5 1110 c 128,-1,14
 696 1009 696 1009 518 874 c 1,15,-1
 872 438 l 1,16,17
 887 488 887 488 891.5 520 c 128,-1,18
 896 552 896 552 899 637 c 128,-1,19
 902 722 902 722 902 742 c 2,20,-1
 902 791 l 1,21,-1
 1088 791 l 1,22,-1
 1088 744 l 2,23,24
 1088 678 1088 678 1074 554.5 c 128,-1,25
 1060 431 1060 431 990 292 c 1,26,-1
 1228 0 l 1,27,-1
 990 0 l 1,28,-1
 881 130 l 1,29,30
 782 26 782 26 685.5 -10.5 c 128,-1,31
 589 -47 589 -47 477 -47 c 0,32,33
 263 -47 263 -47 132.5 74 c 128,-1,34
 2 195 2 195 2 383 c 0,0,1
183 398 m 0,35,36
 183 268 183 268 270 188 c 128,-1,37
 357 108 357 108 481 108 c 0,38,39
 547 108 547 108 614 131 c 128,-1,40
 681 154 681 154 778 254 c 1,41,-1
 373 752 l 1,42,43
 183 588 183 588 183 398 c 0,35,36
297 1265 m 0,44,45
 297 1220 297 1220 309 1173.5 c 128,-1,46
 321 1127 321 1127 399 1022 c 0,47,48
 406 1012 406 1012 421 992 c 1,49,50
 522 1063 522 1063 581 1147.5 c 128,-1,51
 640 1232 640 1232 640 1300 c 0,52,53
 640 1365 640 1365 598.5 1411.5 c 128,-1,54
 557 1458 557 1458 469 1458 c 0,55,56
 393 1458 393 1458 345 1402 c 128,-1,57
 297 1346 297 1346 297 1265 c 0,44,45
EndSplineSet
EndChar

StartChar: quotesingle
Encoding: 39 39 10
Width: 1229
GlyphClass: 2
Flags: W
LayerCount: 2
Fore
SplineSet
444 1614 m 1,0,-1
 785 1614 l 1,1,-1
 683 993 l 1,2,-1
 549 993 l 1,3,-1
 444 1614 l 1,0,-1
EndSplineSet
EndChar

StartChar: parenleft
Encoding: 40 40 11
Width: 1229
GlyphClass: 2
Flags: W
LayerCount: 2
Fore
SplineSet
188 636 m 256,0,1
 188 874 188 874 301.5 1111 c 128,-1,2
 415 1348 415 1348 605 1487.5 c 128,-1,3
 795 1627 795 1627 1072 1645 c 1,4,-1
 1072 1489 l 1,5,6
 863 1470 863 1470 712.5 1348.5 c 128,-1,7
 562 1227 562 1227 476 1039 c 128,-1,8
 390 851 390 851 390 636 c 256,9,10
 390 421 390 421 476 233 c 128,-1,11
 562 45 562 45 712.5 -76 c 128,-1,12
 863 -197 863 -197 1072 -217 c 1,13,-1
 1072 -372 l 1,14,15
 795 -355 795 -355 605 -215.5 c 128,-1,16
 415 -76 415 -76 301.5 161 c 128,-1,17
 188 398 188 398 188 636 c 256,0,1
EndSplineSet
EndChar

StartChar: parenright
Encoding: 41 41 12
Width: 1229
GlyphClass: 2
Flags: W
LayerCount: 2
Fore
SplineSet
157 -217 m 1,0,1
 366 -197 366 -197 516.5 -76 c 128,-1,2
 667 45 667 45 753.5 233 c 128,-1,3
 840 421 840 421 840 636 c 256,4,5
 840 851 840 851 753.5 1039 c 128,-1,6
 667 1227 667 1227 516.5 1348.5 c 128,-1,7
 366 1470 366 1470 157 1489 c 1,8,-1
 157 1645 l 1,9,10
 434 1627 434 1627 624 1487.5 c 128,-1,11
 814 1348 814 1348 927.5 1111 c 128,-1,12
 1041 874 1041 874 1041 636 c 256,13,14
 1041 398 1041 398 927.5 161 c 128,-1,15
 814 -76 814 -76 624 -215.5 c 128,-1,16
 434 -355 434 -355 157 -372 c 1,17,-1
 157 -217 l 1,0,1
EndSplineSet
EndChar

StartChar: asterisk
Encoding: 42 42 13
Width: 1229
GlyphClass: 2
Flags: W
LayerCount: 2
Fore
SplineSet
164 978 m 1,0,-1
 471 1128 l 1,1,-1
 164 1280 l 1,2,-1
 257 1439 l 1,3,-1
 540 1250 l 1,4,-1
 519 1598 l 1,5,-1
 707 1598 l 1,6,-1
 681 1250 l 1,7,-1
 970 1439 l 1,8,-1
 1064 1280 l 1,9,-1
 756 1128 l 1,10,-1
 1064 978 l 1,11,-1
 970 816 l 1,12,-1
 681 1006 l 1,13,-1
 707 659 l 1,14,-1
 519 659 l 1,15,-1
 540 1006 l 1,16,-1
 257 816 l 1,17,-1
 164 978 l 1,0,-1
EndSplineSet
EndChar

StartChar: plus
Encoding: 43 43 14
Width: 1229
GlyphClass: 2
Flags: W
LayerCount: 2
Fore
SplineSet
71 465 m 1,0,-1
 71 621 l 1,1,-1
 536 621 l 1,2,-1
 536 1086 l 1,3,-1
 692 1086 l 1,4,-1
 692 621 l 1,5,-1
 1157 621 l 1,6,-1
 1157 465 l 1,7,-1
 692 465 l 1,8,-1
 692 0 l 1,9,-1
 536 0 l 1,10,-1
 536 465 l 1,11,-1
 71 465 l 1,0,-1
EndSplineSet
EndChar

StartChar: comma
Encoding: 44 44 15
Width: 1229
GlyphClass: 2
Flags: W
LayerCount: 2
Fore
SplineSet
424 -310 m 1,0,1
 496 -291 496 -291 533.5 -255.5 c 128,-1,2
 571 -220 571 -220 593.5 -165.5 c 128,-1,3
 616 -111 616 -111 616 -34 c 1,4,5
 523 -34 523 -34 479 18.5 c 128,-1,6
 435 71 435 71 435 131 c 0,7,8
 435 200 435 200 484 247.5 c 128,-1,9
 533 295 533 295 598 295 c 0,10,11
 682 295 682 295 743 222.5 c 128,-1,12
 804 150 804 150 804 24 c 0,13,14
 804 -86 804 -86 756 -183.5 c 128,-1,15
 708 -281 708 -281 625.5 -350 c 128,-1,16
 543 -419 543 -419 424 -434 c 1,17,-1
 424 -310 l 1,0,1
EndSplineSet
EndChar

StartChar: hyphen
Encoding: 45 45 16
Width: 1229
GlyphClass: 2
Flags: W
LayerCount: 2
Fore
SplineSet
227 551 m 1,0,-1
 227 706 l 1,1,-1
 1003 706 l 1,2,-1
 1003 551 l 1,3,-1
 227 551 l 1,0,-1
EndSplineSet
EndChar

StartChar: period
Encoding: 46 46 17
Width: 1229
GlyphClass: 2
Flags: W
LayerCount: 2
Fore
SplineSet
451 116 m 0,0,1
 451 184 451 184 499.5 231.5 c 128,-1,2
 548 279 548 279 614 279 c 256,3,4
 680 279 680 279 728.5 231.5 c 128,-1,5
 777 184 777 184 777 116 c 0,6,7
 777 49 777 49 729 1 c 128,-1,8
 681 -47 681 -47 614 -47 c 256,9,10
 547 -47 547 -47 499 1 c 128,-1,11
 451 49 451 49 451 116 c 0,0,1
EndSplineSet
EndChar

StartChar: slash
Encoding: 47 47 18
Width: 1229
GlyphClass: 2
Flags: W
LayerCount: 2
Fore
SplineSet
33 -47 m 1,0,-1
 1020 1598 l 1,1,-1
 1197 1598 l 1,2,-1
 216 -47 l 1,3,-1
 33 -47 l 1,0,-1
EndSplineSet
EndChar

StartChar: zero
Encoding: 48 48 19
Width: 1229
GlyphClass: 2
Flags: W
LayerCount: 2
Fore
SplineSet
71 776 m 0,0,1
 71 1153 71 1153 210.5 1375.5 c 128,-1,2
 350 1598 350 1598 614 1598 c 0,3,4
 879 1598 879 1598 1018 1375.5 c 128,-1,5
 1157 1153 1157 1153 1157 776 c 0,6,7
 1157 398 1157 398 1018 175.5 c 128,-1,8
 879 -47 879 -47 614 -47 c 0,9,10
 350 -47 350 -47 210.5 175.5 c 128,-1,11
 71 398 71 398 71 776 c 0,0,1
273 787 m 0,12,13
 273 722 273 722 277 647 c 128,-1,14
 281 572 281 572 311 444 c 1,15,-1
 848 1285 l 1,16,17
 797 1378 797 1378 737.5 1410.5 c 128,-1,18
 678 1443 678 1443 614 1443 c 0,19,20
 447 1443 447 1443 360 1257.5 c 128,-1,21
 273 1072 273 1072 273 787 c 0,12,13
382 254 m 1,22,23
 425 181 425 181 481 144.5 c 128,-1,24
 537 108 537 108 606 108 c 0,25,26
 796 108 796 108 876 320.5 c 128,-1,27
 956 533 956 533 956 792 c 0,28,29
 956 952 956 952 915 1100 c 1,30,-1
 382 254 l 1,22,23
EndSplineSet
EndChar

StartChar: one
Encoding: 49 49 20
Width: 1229
GlyphClass: 2
Flags: W
LayerCount: 2
Fore
SplineSet
188 0 m 1,0,-1
 188 155 l 1,1,-1
 568 155 l 1,2,-1
 568 1353 l 1,3,4
 484 1286 484 1286 405 1239 c 128,-1,5
 326 1192 326 1192 188 1143 c 1,6,-1
 188 1311 l 1,7,8
 407 1404 407 1404 568 1552 c 1,9,-1
 754 1552 l 1,10,-1
 754 155 l 1,11,-1
 1127 155 l 1,12,-1
 1127 0 l 1,13,-1
 188 0 l 1,0,-1
EndSplineSet
EndChar

StartChar: two
Encoding: 50 50 21
Width: 1229
GlyphClass: 2
Flags: W
LayerCount: 2
Fore
SplineSet
149 0 m 1,0,-1
 149 171 l 2,1,2
 149 237 149 237 176 312.5 c 128,-1,3
 203 388 203 388 279 482 c 128,-1,4
 355 576 355 576 440 663 c 2,5,-1
 546 771 l 2,6,7
 578 804 578 804 686 924 c 128,-1,8
 794 1044 794 1044 828.5 1108 c 128,-1,9
 863 1172 863 1172 863 1234 c 0,10,11
 863 1334 863 1334 783 1388.5 c 128,-1,12
 703 1443 703 1443 603 1443 c 0,13,14
 546 1443 546 1443 475.5 1430 c 128,-1,15
 405 1417 405 1417 352 1399.5 c 128,-1,16
 299 1382 299 1382 180 1328 c 1,17,-1
 180 1493 l 1,18,19
 306 1553 306 1553 432.5 1575.5 c 128,-1,20
 559 1598 559 1598 641 1598 c 0,21,22
 762 1598 762 1598 863.5 1558.5 c 128,-1,23
 965 1519 965 1519 1014.5 1436 c 128,-1,24
 1064 1353 1064 1353 1064 1259 c 0,25,26
 1064 1154 1064 1154 1000.5 1044 c 128,-1,27
 937 934 937 934 761 761 c 1,28,-1
 647 648 l 1,29,-1
 551 554 l 1,30,31
 460 462 460 462 404 376 c 128,-1,32
 348 290 348 290 342 171 c 1,33,-1
 1088 171 l 1,34,-1
 1088 0 l 1,35,-1
 149 0 l 1,0,-1
EndSplineSet
EndChar

StartChar: three
Encoding: 51 51 22
Width: 1229
GlyphClass: 2
Flags: W
LayerCount: 2
Fore
SplineSet
145 28 m 1,0,-1
 145 224 l 1,1,2
 374 108 374 108 542 108 c 0,3,4
 696 108 696 108 796.5 201.5 c 128,-1,5
 897 295 897 295 897 442 c 0,6,7
 897 590 897 590 786.5 683 c 128,-1,8
 676 776 676 776 411 776 c 2,9,-1
 308 776 l 1,10,-1
 308 931 l 1,11,-1
 451 931 l 2,12,13
 646 931 646 931 733 1018.5 c 128,-1,14
 820 1106 820 1106 820 1213 c 0,15,16
 820 1310 820 1310 749 1376.5 c 128,-1,17
 678 1443 678 1443 531 1443 c 0,18,19
 366 1443 366 1443 176 1350 c 1,20,-1
 176 1527 l 1,21,22
 366 1598 366 1598 524 1598 c 0,23,24
 807 1598 807 1598 914.5 1486.5 c 128,-1,25
 1022 1375 1022 1375 1022 1232 c 0,26,27
 1022 1126 1022 1126 965 1033 c 128,-1,28
 908 940 908 940 755 867 c 1,29,30
 890 827 890 827 959 769 c 128,-1,31
 1028 711 1028 711 1063.5 632 c 128,-1,32
 1099 553 1099 553 1099 455 c 0,33,34
 1099 237 1099 237 937.5 95 c 128,-1,35
 776 -47 776 -47 520 -47 c 0,36,37
 446 -47 446 -47 358.5 -36 c 128,-1,38
 271 -25 271 -25 145 28 c 1,0,-1
EndSplineSet
EndChar

StartChar: four
Encoding: 52 52 23
Width: 1229
GlyphClass: 2
Flags: W
LayerCount: 2
Fore
SplineSet
48 434 m 1,0,-1
 48 590 l 1,1,-1
 707 1552 l 1,2,-1
 894 1552 l 1,3,-1
 894 590 l 1,4,-1
 1181 590 l 1,5,-1
 1181 434 l 1,6,-1
 894 434 l 1,7,-1
 894 0 l 1,8,-1
 707 0 l 1,9,-1
 707 434 l 1,10,-1
 48 434 l 1,0,-1
246 590 m 1,11,-1
 707 590 l 1,12,-1
 707 1270 l 1,13,-1
 246 590 l 1,11,-1
EndSplineSet
EndChar

StartChar: five
Encoding: 53 53 24
Width: 1229
GlyphClass: 2
Flags: W
LayerCount: 2
Fore
SplineSet
157 26 m 1,0,-1
 157 229 l 1,1,2
 242 183 242 183 347 153.5 c 128,-1,3
 452 124 452 124 541 124 c 256,4,5
 630 124 630 124 715 167 c 128,-1,6
 800 210 800 210 847 292.5 c 128,-1,7
 894 375 894 375 894 461 c 0,8,9
 894 606 894 606 765.5 706.5 c 128,-1,10
 637 807 637 807 309 807 c 2,11,-1
 188 807 l 1,12,-1
 188 1552 l 1,13,-1
 1057 1552 l 1,14,-1
 1057 1373 l 1,15,-1
 374 1373 l 1,16,-1
 374 993 l 1,17,-1
 406 993 l 2,18,19
 741 993 741 993 922 853 c 128,-1,20
 1103 713 1103 713 1103 476 c 0,21,22
 1103 326 1103 326 1030 207 c 128,-1,23
 957 88 957 88 824 20.5 c 128,-1,24
 691 -47 691 -47 541 -47 c 256,25,26
 391 -47 391 -47 157 26 c 1,0,-1
EndSplineSet
EndChar

StartChar: six
Encoding: 54 54 25
Width: 1229
GlyphClass: 2
Flags: W
LayerCount: 2
Fore
SplineSet
102 759 m 0,0,1
 102 1147 102 1147 273 1372.5 c 128,-1,2
 444 1598 444 1598 736 1598 c 0,3,4
 893 1598 893 1598 1041 1552 c 1,5,-1
 1041 1364 l 1,6,7
 875 1443 875 1443 728 1443 c 0,8,9
 520 1443 520 1443 406 1252 c 128,-1,10
 292 1061 292 1061 292 768 c 2,11,-1
 292 728 l 1,12,13
 364 835 364 835 470.5 902.5 c 128,-1,14
 577 970 577 970 705 970 c 0,15,16
 826 970 826 970 934.5 911 c 128,-1,17
 1043 852 1043 852 1100 746.5 c 128,-1,18
 1157 641 1157 641 1157 501 c 0,19,20
 1157 280 1157 280 1015.5 116.5 c 128,-1,21
 874 -47 874 -47 643 -47 c 0,22,23
 371 -47 371 -47 236.5 180.5 c 128,-1,24
 102 408 102 408 102 759 c 0,0,1
366 453 m 0,25,26
 366 301 366 301 454.5 204.5 c 128,-1,27
 543 108 543 108 657 108 c 0,28,29
 732 108 732 108 808 152.5 c 128,-1,30
 884 197 884 197 927.5 289.5 c 128,-1,31
 971 382 971 382 971 491 c 0,32,33
 971 633 971 633 897.5 724 c 128,-1,34
 824 815 824 815 688 815 c 0,35,36
 547 815 547 815 456.5 709.5 c 128,-1,37
 366 604 366 604 366 453 c 0,25,26
EndSplineSet
EndChar

StartChar: seven
Encoding: 55 55 26
Width: 1229
GlyphClass: 2
Flags: W
LayerCount: 2
Fore
SplineSet
164 1365 m 1,0,-1
 164 1552 l 1,1,-1
 1149 1552 l 1,2,-1
 1149 1428 l 2,3,4
 1149 1354 1149 1354 1119.5 1291 c 128,-1,5
 1090 1228 1090 1228 941 1022 c 0,6,7
 905 973 905 973 870 924 c 2,8,-1
 766 778 l 2,9,10
 666 637 666 637 618 553 c 128,-1,11
 570 469 570 469 545.5 378 c 128,-1,12
 521 287 521 287 521 139 c 2,13,-1
 521 0 l 1,14,-1
 319 0 l 1,15,-1
 319 139 l 2,16,17
 319 302 319 302 356 413 c 128,-1,18
 393 524 393 524 486 660 c 128,-1,19
 579 796 579 796 635 870 c 2,20,-1
 797 1084 l 1,21,-1
 855 1159 l 1,22,23
 921 1248 921 1248 969 1365 c 1,24,-1
 164 1365 l 1,0,-1
EndSplineSet
EndChar

StartChar: eight
Encoding: 56 56 27
Width: 1229
GlyphClass: 2
Flags: W
LayerCount: 2
Fore
SplineSet
133 355 m 0,0,1
 133 610 133 610 459 837 c 1,2,-1
 425 862 l 1,3,4
 354 912 354 912 286 1009.5 c 128,-1,5
 218 1107 218 1107 218 1224 c 0,6,7
 218 1379 218 1379 340 1488.5 c 128,-1,8
 462 1598 462 1598 650 1598 c 0,9,10
 765 1598 765 1598 857 1556.5 c 128,-1,11
 949 1515 949 1515 999 1434 c 128,-1,12
 1049 1353 1049 1353 1049 1257 c 0,13,14
 1049 1191 1049 1191 1026 1129.5 c 128,-1,15
 1003 1068 1003 1068 957.5 1007.5 c 128,-1,16
 912 947 912 947 777 837 c 1,17,-1
 861 770 l 1,18,19
 1008 650 1008 650 1059 563 c 128,-1,20
 1110 476 1110 476 1110 368 c 0,21,22
 1110 200 1110 200 988 76.5 c 128,-1,23
 866 -47 866 -47 622 -47 c 0,24,25
 377 -47 377 -47 255 68.5 c 128,-1,26
 133 184 133 184 133 355 c 0,0,1
335 358 m 0,27,28
 335 253 335 253 422 181 c 128,-1,29
 509 109 509 109 628 109 c 0,30,31
 737 109 737 109 823 178 c 128,-1,32
 909 247 909 247 909 350 c 0,33,34
 909 451 909 451 804.5 555 c 128,-1,35
 700 659 700 659 659 691 c 2,36,-1
 599 738 l 1,37,38
 335 535 335 535 335 358 c 0,27,28
397 1237 m 0,39,40
 397 1167 397 1167 446 1105 c 128,-1,41
 495 1043 495 1043 603 966 c 2,42,-1
 650 932 l 1,43,44
 791 1039 791 1039 826.5 1111 c 128,-1,45
 862 1183 862 1183 862 1245 c 0,46,47
 862 1320 862 1320 796 1381.5 c 128,-1,48
 730 1443 730 1443 626 1443 c 0,49,50
 514 1443 514 1443 455.5 1376 c 128,-1,51
 397 1309 397 1309 397 1237 c 0,39,40
EndSplineSet
EndChar

StartChar: nine
Encoding: 57 57 28
Width: 1229
GlyphClass: 2
Flags: W
LayerCount: 2
Fore
SplineSet
71 1051 m 0,0,1
 71 1271 71 1271 212.5 1434.5 c 128,-1,2
 354 1598 354 1598 585 1598 c 0,3,4
 857 1598 857 1598 991.5 1370.5 c 128,-1,5
 1126 1143 1126 1143 1126 792 c 0,6,7
 1126 404 1126 404 955 178.5 c 128,-1,8
 784 -47 784 -47 492 -47 c 0,9,10
 335 -47 335 -47 187 0 c 1,11,-1
 187 187 l 1,12,13
 353 109 353 109 500 109 c 0,14,15
 708 109 708 109 822 300 c 128,-1,16
 936 491 936 491 936 784 c 2,17,-1
 936 824 l 1,18,19
 864 717 864 717 757.5 649.5 c 128,-1,20
 651 582 651 582 523 582 c 0,21,22
 402 582 402 582 293.5 640.5 c 128,-1,23
 185 699 185 699 128 805 c 128,-1,24
 71 911 71 911 71 1051 c 0,0,1
257 1060 m 0,25,26
 257 919 257 919 330.5 828 c 128,-1,27
 404 737 404 737 540 737 c 0,28,29
 681 737 681 737 771.5 842.5 c 128,-1,30
 862 948 862 948 862 1098 c 0,31,32
 862 1250 862 1250 773.5 1346.5 c 128,-1,33
 685 1443 685 1443 571 1443 c 0,34,35
 496 1443 496 1443 420 1398.5 c 128,-1,36
 344 1354 344 1354 300.5 1262 c 128,-1,37
 257 1170 257 1170 257 1060 c 0,25,26
EndSplineSet
EndChar

StartChar: colon
Encoding: 58 58 29
Width: 1229
GlyphClass: 2
Flags: W
LayerCount: 2
Fore
SplineSet
451 116 m 0,0,1
 451 184 451 184 499.5 231.5 c 128,-1,2
 548 279 548 279 614 279 c 256,3,4
 680 279 680 279 728.5 231.5 c 128,-1,5
 777 184 777 184 777 116 c 0,6,7
 777 49 777 49 729 1 c 128,-1,8
 681 -47 681 -47 614 -47 c 256,9,10
 547 -47 547 -47 499 1 c 128,-1,11
 451 49 451 49 451 116 c 0,0,1
451 985 m 0,12,13
 451 1053 451 1053 499.5 1100.5 c 128,-1,14
 548 1148 548 1148 614 1148 c 256,15,16
 680 1148 680 1148 728.5 1100.5 c 128,-1,17
 777 1053 777 1053 777 985 c 0,18,19
 777 918 777 918 729 870 c 128,-1,20
 681 822 681 822 614 822 c 256,21,22
 547 822 547 822 499 870 c 128,-1,23
 451 918 451 918 451 985 c 0,12,13
EndSplineSet
EndChar

StartChar: semicolon
Encoding: 59 59 30
Width: 1229
GlyphClass: 2
Flags: W
LayerCount: 2
Fore
SplineSet
424 -310 m 5,0,1
 496 -291 496 -291 533.5 -255.5 c 132,-1,2
 571 -220 571 -220 593.5 -165.5 c 132,-1,3
 616 -111 616 -111 616 -34 c 5,4,5
 523 -34 523 -34 479 18.5 c 132,-1,6
 435 71 435 71 435 131 c 4,7,8
 435 200 435 200 484 247.5 c 132,-1,9
 533 295 533 295 598 295 c 4,10,11
 682 295 682 295 743 222.5 c 132,-1,12
 804 150 804 150 804 24 c 4,13,14
 804 -86 804 -86 756 -183.5 c 132,-1,15
 708 -281 708 -281 625.5 -350 c 132,-1,16
 543 -419 543 -419 424 -434 c 5,17,-1
 424 -310 l 5,0,1
435 985 m 4,18,19
 435 1053 435 1053 483.5 1100.5 c 132,-1,20
 532 1148 532 1148 598 1148 c 260,21,22
 664 1148 664 1148 712.5 1100.5 c 132,-1,23
 761 1053 761 1053 761 985 c 4,24,25
 761 918 761 918 713 870 c 132,-1,26
 665 822 665 822 598 822 c 260,27,28
 531 822 531 822 483 870 c 132,-1,29
 435 918 435 918 435 985 c 4,18,19
EndSplineSet
EndChar

StartChar: less
Encoding: 60 60 31
Width: 1229
GlyphClass: 2
Flags: W
LayerCount: 2
Fore
SplineSet
71 543 m 1,0,-1
 1157 1086 l 1,1,-1
 1157 913 l 1,2,-1
 415 544 l 1,3,-1
 1157 171 l 1,4,-1
 1157 0 l 1,5,-1
 71 543 l 1,0,-1
EndSplineSet
EndChar

StartChar: equal
Encoding: 61 61 32
Width: 1229
GlyphClass: 2
Flags: W
LayerCount: 2
Fore
SplineSet
71 287 m 1,0,-1
 71 442 l 1,1,-1
 1157 442 l 1,2,-1
 1157 287 l 1,3,-1
 71 287 l 1,0,-1
71 636 m 1,4,-1
 71 791 l 1,5,-1
 1157 791 l 1,6,-1
 1157 636 l 1,7,-1
 71 636 l 1,4,-1
EndSplineSet
EndChar

StartChar: greater
Encoding: 62 62 33
Width: 1229
GlyphClass: 2
Flags: W
LayerCount: 2
Fore
SplineSet
71 0 m 1,0,-1
 71 173 l 1,1,-1
 814 542 l 1,2,-1
 71 915 l 1,3,-1
 71 1086 l 1,4,-1
 1157 543 l 1,5,-1
 71 0 l 1,0,-1
EndSplineSet
EndChar

StartChar: question
Encoding: 63 63 34
Width: 1229
GlyphClass: 2
Flags: W
LayerCount: 2
Fore
SplineSet
207 1328 m 1,0,-1
 207 1508 l 1,1,2
 392 1598 392 1598 594 1598 c 0,3,4
 818 1598 818 1598 935.5 1506.5 c 128,-1,5
 1053 1415 1053 1415 1053 1269 c 0,6,7
 1053 1125 1053 1125 901 970 c 1,8,-1
 835 902 l 1,9,-1
 757 821 l 1,10,-1
 686 748 l 1,11,12
 647 704 647 704 617 647 c 128,-1,13
 587 590 587 590 587 488 c 2,14,-1
 587 442 l 1,15,-1
 401 442 l 1,16,-1
 401 477 l 2,17,18
 401 560 401 560 415 615.5 c 128,-1,19
 429 671 429 671 468.5 730.5 c 128,-1,20
 508 790 508 790 587 874 c 2,21,-1
 649 940 l 2,22,23
 667 959 667 959 701 1002 c 2,24,-1
 767 1085 l 1,25,26
 851 1189 851 1189 851 1265 c 0,27,28
 851 1335 851 1335 791 1389 c 128,-1,29
 731 1443 731 1443 596 1443 c 0,30,31
 509 1443 509 1443 418.5 1419.5 c 128,-1,32
 328 1396 328 1396 207 1328 c 1,0,-1
360 97 m 256,33,34
 360 156 360 156 402.5 198 c 128,-1,35
 445 240 445 240 503 240 c 0,36,37
 562 240 562 240 604.5 198.5 c 128,-1,38
 647 157 647 157 647 97 c 256,39,40
 647 37 647 37 604 -5 c 128,-1,41
 561 -47 561 -47 503 -47 c 256,42,43
 445 -47 445 -47 402.5 -4.5 c 128,-1,44
 360 38 360 38 360 97 c 256,33,34
EndSplineSet
EndChar

StartChar: at
Encoding: 64 64 35
Width: 1229
GlyphClass: 2
Flags: W
LayerCount: 2
Fore
SplineSet
2 781 m 0,0,1
 2 1145 2 1145 169 1371.5 c 128,-1,2
 336 1598 336 1598 620 1598 c 0,3,4
 901 1598 901 1598 1064.5 1398 c 128,-1,5
 1228 1198 1228 1198 1228 872 c 0,6,7
 1228 728 1228 728 1186 635.5 c 128,-1,8
 1144 543 1144 543 1075 488.5 c 128,-1,9
 1006 434 1006 434 908 434 c 0,10,11
 832 434 832 434 784 467.5 c 128,-1,12
 736 501 736 501 712 622 c 1,13,14
 684 557 684 557 626 495.5 c 128,-1,15
 568 434 568 434 469 434 c 0,16,17
 366 434 366 434 298.5 527.5 c 128,-1,18
 231 621 231 621 231 757 c 0,19,20
 231 924 231 924 327.5 1067 c 128,-1,21
 424 1210 424 1210 676 1210 c 2,22,-1
 867 1210 l 1,23,-1
 867 772 l 2,24,25
 867 685 867 685 873.5 648.5 c 128,-1,26
 880 612 880 612 900.5 593 c 128,-1,27
 921 574 921 574 945 574 c 0,28,29
 984 574 984 574 1023.5 611.5 c 128,-1,30
 1063 649 1063 649 1083.5 717.5 c 128,-1,31
 1104 786 1104 786 1104 866 c 0,32,33
 1104 1033 1104 1033 1043 1190.5 c 128,-1,34
 982 1348 982 1348 862 1415 c 128,-1,35
 742 1482 742 1482 611 1482 c 0,36,37
 472 1482 472 1482 366.5 1398.5 c 128,-1,38
 261 1315 261 1315 193.5 1148 c 128,-1,39
 126 981 126 981 126 779 c 0,40,41
 126 576 126 576 193 403 c 128,-1,42
 260 230 260 230 374 150 c 128,-1,43
 488 70 488 70 628 70 c 0,44,45
 787 70 787 70 921 200 c 1,46,-1
 921 43 l 1,47,48
 837 -12 837 -12 772 -29.5 c 128,-1,49
 707 -47 707 -47 632 -47 c 0,50,51
 424 -47 424 -47 291.5 54.5 c 128,-1,52
 159 156 159 156 80.5 337.5 c 128,-1,53
 2 519 2 519 2 781 c 0,0,1
394 751 m 0,54,55
 394 674 394 674 418 632 c 128,-1,56
 442 590 442 590 484 590 c 0,57,58
 543 590 543 590 604.5 658.5 c 128,-1,59
 666 727 666 727 712 809 c 1,60,-1
 712 1078 l 1,61,-1
 676 1078 l 2,62,63
 558 1078 558 1078 506 1041 c 128,-1,64
 454 1004 454 1004 424 925 c 128,-1,65
 394 846 394 846 394 751 c 0,54,55
EndSplineSet
EndChar

StartChar: A
Encoding: 65 65 36
Width: 1229
GlyphClass: 2
Flags: W
LayerCount: 2
Fore
SplineSet
33 0 m 1,0,-1
 511 1552 l 1,1,-1
 716 1552 l 1,2,-1
 1197 0 l 1,3,-1
 984 0 l 1,4,-1
 878 341 l 1,5,-1
 332 341 l 1,6,-1
 227 0 l 1,7,-1
 33 0 l 1,0,-1
380 496 m 1,8,-1
 833 496 l 1,9,-1
 646 1085 l 1,10,-1
 602 1241 l 1,11,-1
 563 1085 l 1,12,-1
 380 496 l 1,8,-1
EndSplineSet
EndChar

StartChar: B
Encoding: 66 66 37
Width: 1229
GlyphClass: 2
Flags: W
LayerCount: 2
Fore
SplineSet
172 0 m 1,0,-1
 172 1552 l 1,1,-1
 475 1552 l 2,2,3
 748 1552 748 1552 840.5 1510.5 c 128,-1,4
 933 1469 933 1469 979 1388 c 128,-1,5
 1025 1307 1025 1307 1025 1203 c 0,6,7
 1025 1121 1025 1121 998 1047.5 c 128,-1,8
 971 974 971 974 918 913.5 c 128,-1,9
 865 853 865 853 764 799 c 1,10,11
 949 725 949 725 1014.5 617 c 128,-1,12
 1080 509 1080 509 1080 401 c 0,13,14
 1080 298 1080 298 1024.5 201 c 128,-1,15
 969 104 969 104 869 52 c 128,-1,16
 769 0 769 0 549 0 c 2,17,-1
 172 0 l 1,0,-1
374 155 m 1,18,-1
 565 155 l 2,19,20
 725 155 725 155 801.5 230.5 c 128,-1,21
 878 306 878 306 878 412 c 0,22,23
 878 490 878 490 836 555.5 c 128,-1,24
 794 621 794 621 706 659.5 c 128,-1,25
 618 698 618 698 430 698 c 2,26,-1
 374 698 l 1,27,-1
 374 155 l 1,18,-1
374 853 m 1,28,-1
 586 853 l 1,29,30
 689 896 689 896 736.5 943.5 c 128,-1,31
 784 991 784 991 807.5 1049.5 c 128,-1,32
 831 1108 831 1108 831 1178 c 0,33,34
 831 1288 831 1288 766.5 1342 c 128,-1,35
 702 1396 702 1396 515 1396 c 2,36,-1
 374 1396 l 1,37,-1
 374 853 l 1,28,-1
EndSplineSet
EndChar

StartChar: C
Encoding: 67 67 38
Width: 1229
GlyphClass: 2
Flags: W
LayerCount: 2
Fore
SplineSet
118 776 m 0,0,1
 118 1017 118 1017 202 1209 c 128,-1,2
 286 1401 286 1401 439 1500 c 128,-1,3
 592 1599 592 1599 776 1599 c 0,4,5
 914 1599 914 1599 1088 1534 c 1,6,-1
 1088 1350 l 1,7,8
 927 1443 927 1443 768 1443 c 0,9,10
 648 1443 648 1443 548.5 1361 c 128,-1,11
 449 1279 449 1279 388 1120.5 c 128,-1,12
 327 962 327 962 327 776 c 0,13,14
 327 587 327 587 390 427 c 128,-1,15
 453 267 453 267 551 187.5 c 128,-1,16
 649 108 649 108 768 108 c 0,17,18
 926 108 926 108 1088 201 c 1,19,-1
 1088 18 l 1,20,21
 914 -47 914 -47 776 -47 c 0,22,23
 594 -47 594 -47 441 50.5 c 128,-1,24
 288 148 288 148 203 340.5 c 128,-1,25
 118 533 118 533 118 776 c 0,0,1
EndSplineSet
EndChar

StartChar: D
Encoding: 68 68 39
Width: 1229
GlyphClass: 2
Flags: W
LayerCount: 2
Fore
SplineSet
155 0 m 1,0,-1
 155 1552 l 1,1,-1
 523 1552 l 2,2,3
 777 1552 777 1552 900.5 1463.5 c 128,-1,4
 1024 1375 1024 1375 1086 1196 c 128,-1,5
 1148 1017 1148 1017 1148 772 c 0,6,7
 1148 540 1148 540 1082.5 364.5 c 128,-1,8
 1017 189 1017 189 897 94.5 c 128,-1,9
 777 0 777 0 523 0 c 2,10,-1
 155 0 l 1,0,-1
357 171 m 1,11,-1
 492 171 l 2,12,13
 697 171 697 171 784.5 244 c 128,-1,14
 872 317 872 317 909.5 446.5 c 128,-1,15
 947 576 947 576 947 804 c 0,16,17
 947 1027 947 1027 903 1147 c 128,-1,18
 859 1267 859 1267 777 1331.5 c 128,-1,19
 695 1396 695 1396 508 1396 c 2,20,-1
 357 1396 l 1,21,-1
 357 171 l 1,11,-1
EndSplineSet
EndChar

StartChar: E
Encoding: 69 69 40
Width: 1229
GlyphClass: 2
Flags: W
LayerCount: 2
Fore
SplineSet
203 0 m 1,0,-1
 203 1552 l 1,1,-1
 1025 1552 l 1,2,-1
 1025 1396 l 1,3,-1
 405 1396 l 1,4,-1
 405 869 l 1,5,-1
 963 869 l 1,6,-1
 963 714 l 1,7,-1
 405 714 l 1,8,-1
 405 171 l 1,9,-1
 1041 171 l 1,10,-1
 1041 0 l 1,11,-1
 203 0 l 1,0,-1
EndSplineSet
EndChar

StartChar: F
Encoding: 70 70 41
Width: 1229
GlyphClass: 2
Flags: W
LayerCount: 2
Fore
SplineSet
227 0 m 1,0,-1
 227 1552 l 1,1,-1
 1080 1552 l 1,2,-1
 1080 1396 l 1,3,-1
 429 1396 l 1,4,-1
 429 869 l 1,5,-1
 1018 869 l 1,6,-1
 1018 714 l 1,7,-1
 429 714 l 1,8,-1
 429 0 l 1,9,-1
 227 0 l 1,0,-1
EndSplineSet
EndChar

StartChar: G
Encoding: 71 71 42
Width: 1229
GlyphClass: 2
Flags: W
LayerCount: 2
Fore
SplineSet
118 776 m 0,0,1
 118 1017 118 1017 202 1209 c 128,-1,2
 286 1401 286 1401 439 1500 c 128,-1,3
 592 1599 592 1599 775 1599 c 0,4,5
 913 1599 913 1599 1087 1534 c 1,6,-1
 1087 1350 l 1,7,8
 926 1443 926 1443 767 1443 c 0,9,10
 647 1443 647 1443 547.5 1361 c 128,-1,11
 448 1279 448 1279 387.5 1120.5 c 128,-1,12
 327 962 327 962 327 774 c 0,13,14
 327 522 327 522 442 315 c 128,-1,15
 557 108 557 108 805 108 c 0,16,17
 837 108 837 108 886 113 c 1,18,-1
 886 613 l 1,19,-1
 731 613 l 1,20,-1
 731 768 l 1,21,-1
 1088 768 l 1,22,-1
 1088 1 l 1,23,24
 924 -47 924 -47 787 -47 c 0,25,26
 593 -47 593 -47 441.5 49 c 128,-1,27
 290 145 290 145 204 338.5 c 128,-1,28
 118 532 118 532 118 776 c 0,0,1
EndSplineSet
EndChar

StartChar: H
Encoding: 72 72 43
Width: 1229
GlyphClass: 2
Flags: W
LayerCount: 2
Fore
SplineSet
126 0 m 1,0,-1
 126 1552 l 1,1,-1
 328 1552 l 1,2,-1
 328 884 l 1,3,-1
 902 884 l 1,4,-1
 902 1552 l 1,5,-1
 1103 1552 l 1,6,-1
 1103 0 l 1,7,-1
 902 0 l 1,8,-1
 902 729 l 1,9,-1
 328 729 l 1,10,-1
 328 0 l 1,11,-1
 126 0 l 1,0,-1
EndSplineSet
EndChar

StartChar: I
Encoding: 73 73 44
Width: 1229
GlyphClass: 2
Flags: W
LayerCount: 2
Fore
SplineSet
172 0 m 1,0,-1
 172 155 l 1,1,-1
 513 155 l 1,2,-1
 513 1396 l 1,3,-1
 172 1396 l 1,4,-1
 172 1552 l 1,5,-1
 1056 1552 l 1,6,-1
 1056 1396 l 1,7,-1
 715 1396 l 1,8,-1
 715 155 l 1,9,-1
 1056 155 l 1,10,-1
 1056 0 l 1,11,-1
 172 0 l 1,0,-1
EndSplineSet
EndChar

StartChar: J
Encoding: 74 74 45
Width: 1229
GlyphClass: 2
Flags: W
LayerCount: 2
Fore
SplineSet
110 34 m 1,0,-1
 110 224 l 1,1,2
 328 109 328 109 475 109 c 0,3,4
 552 109 552 109 615.5 139 c 128,-1,5
 679 169 679 169 716.5 239.5 c 128,-1,6
 754 310 754 310 754 541 c 2,7,-1
 754 1396 l 1,8,-1
 405 1396 l 1,9,-1
 405 1552 l 1,10,-1
 956 1552 l 1,11,-1
 956 536 l 2,12,13
 956 288 956 288 899.5 179 c 128,-1,14
 843 70 843 70 741 11.5 c 128,-1,15
 639 -47 639 -47 480 -47 c 0,16,17
 302 -47 302 -47 110 34 c 1,0,-1
EndSplineSet
EndChar

StartChar: K
Encoding: 75 75 46
Width: 1229
GlyphClass: 2
Flags: W
LayerCount: 2
Fore
SplineSet
157 0 m 1,0,-1
 157 1552 l 1,1,-1
 359 1552 l 1,2,-1
 359 791 l 1,3,-1
 936 1552 l 1,4,-1
 1150 1552 l 1,5,-1
 593 815 l 1,6,-1
 1228 0 l 1,7,-1
 975 0 l 1,8,-1
 359 791 l 1,9,-1
 359 0 l 1,10,-1
 157 0 l 1,0,-1
EndSplineSet
EndChar

StartChar: L
Encoding: 76 76 47
Width: 1229
GlyphClass: 2
Flags: W
LayerCount: 2
Fore
SplineSet
219 0 m 1,0,-1
 219 1552 l 1,1,-1
 421 1552 l 1,2,-1
 421 171 l 1,3,-1
 1057 171 l 1,4,-1
 1057 0 l 1,5,-1
 219 0 l 1,0,-1
EndSplineSet
EndChar

StartChar: M
Encoding: 77 77 48
Width: 1229
GlyphClass: 2
Flags: W
LayerCount: 2
Fore
SplineSet
56 0 m 1,0,-1
 56 1552 l 1,1,-1
 259 1552 l 1,2,-1
 617 530 l 1,3,-1
 975 1552 l 1,4,-1
 1173 1552 l 1,5,-1
 1173 0 l 1,6,-1
 987 0 l 1,7,-1
 987 989 l 1,8,-1
 992 1125 l 1,9,-1
 987 1125 l 1,10,-1
 943 989 l 1,11,-1
 703 310 l 1,12,-1
 501 310 l 1,13,-1
 258 989 l 1,14,-1
 219 1125 l 1,15,-1
 214 1125 l 1,16,-1
 219 989 l 1,17,-1
 219 0 l 1,18,-1
 56 0 l 1,0,-1
EndSplineSet
EndChar

StartChar: N
Encoding: 78 78 49
Width: 1229
GlyphClass: 2
Flags: W
LayerCount: 2
Fore
SplineSet
126 0 m 1,0,-1
 126 1552 l 1,1,-1
 308 1552 l 1,2,-1
 857 519 l 1,3,-1
 917 365 l 1,4,-1
 922 365 l 1,5,-1
 917 519 l 1,6,-1
 917 1552 l 1,7,-1
 1103 1552 l 1,8,-1
 1103 0 l 1,9,-1
 917 0 l 1,10,-1
 383 1016 l 1,11,-1
 308 1179 l 1,12,-1
 312 1018 l 1,13,-1
 312 0 l 1,14,-1
 126 0 l 1,0,-1
EndSplineSet
EndChar

StartChar: O
Encoding: 79 79 50
Width: 1229
GlyphClass: 2
Flags: W
LayerCount: 2
Fore
SplineSet
71 776 m 0,0,1
 71 1153 71 1153 210.5 1375.5 c 128,-1,2
 350 1598 350 1598 614 1598 c 0,3,4
 879 1598 879 1598 1018 1375.5 c 128,-1,5
 1157 1153 1157 1153 1157 776 c 0,6,7
 1157 398 1157 398 1018 175.5 c 128,-1,8
 879 -47 879 -47 614 -47 c 0,9,10
 350 -47 350 -47 210.5 175.5 c 128,-1,11
 71 398 71 398 71 776 c 0,0,1
273 776 m 256,12,13
 273 440 273 440 370.5 274.5 c 128,-1,14
 468 109 468 109 614 109 c 256,15,16
 760 109 760 109 857.5 274.5 c 128,-1,17
 955 440 955 440 955 776 c 256,18,19
 955 1112 955 1112 857.5 1277.5 c 128,-1,20
 760 1443 760 1443 614 1443 c 256,21,22
 468 1443 468 1443 370.5 1277.5 c 128,-1,23
 273 1112 273 1112 273 776 c 256,12,13
EndSplineSet
EndChar

StartChar: P
Encoding: 80 80 51
Width: 1229
GlyphClass: 2
Flags: W
LayerCount: 2
Fore
SplineSet
176 0 m 1,0,-1
 176 1552 l 1,1,-1
 562 1552 l 2,2,3
 800 1552 800 1552 909 1498.5 c 128,-1,4
 1018 1445 1018 1445 1076 1342 c 128,-1,5
 1134 1239 1134 1239 1134 1112 c 0,6,7
 1134 963 1134 963 1056 834 c 128,-1,8
 978 705 978 705 838.5 635.5 c 128,-1,9
 699 566 699 566 460 566 c 2,10,-1
 378 566 l 1,11,-1
 378 0 l 1,12,-1
 176 0 l 1,0,-1
378 721 m 1,13,-1
 465 721 l 2,14,15
 652 721 652 721 743 769.5 c 128,-1,16
 834 818 834 818 883 909 c 128,-1,17
 932 1000 932 1000 932 1106 c 0,18,19
 932 1240 932 1240 844.5 1318 c 128,-1,20
 757 1396 757 1396 499 1396 c 2,21,-1
 378 1396 l 1,22,-1
 378 721 l 1,13,-1
EndSplineSet
EndChar

StartChar: Q
Encoding: 81 81 52
Width: 1229
GlyphClass: 2
Flags: W
LayerCount: 2
Fore
SplineSet
71 800 m 0,0,1
 71 1138 71 1138 206 1368 c 128,-1,2
 341 1598 341 1598 614 1598 c 0,3,4
 878 1598 878 1598 1017.5 1376 c 128,-1,5
 1157 1154 1157 1154 1157 775 c 0,6,7
 1157 595 1157 595 1120.5 430.5 c 128,-1,8
 1084 266 1084 266 994.5 141.5 c 128,-1,9
 905 17 905 17 746 -29 c 1,10,11
 816 -145 816 -145 871 -190 c 128,-1,12
 926 -235 926 -235 1014 -257 c 128,-1,13
 1102 -279 1102 -279 1209 -279 c 2,14,-1
 1227 -279 l 1,15,-1
 1227 -434 l 1,16,-1
 1180 -434 l 2,17,18
 987 -434 987 -434 899 -394 c 128,-1,19
 811 -354 811 -354 733 -271 c 128,-1,20
 655 -188 655 -188 591 -45 c 1,21,22
 408 -25 408 -25 301.5 71 c 128,-1,23
 195 167 195 167 133 368 c 128,-1,24
 71 569 71 569 71 800 c 0,0,1
273 776 m 256,25,26
 273 440 273 440 370.5 274.5 c 128,-1,27
 468 109 468 109 614 109 c 256,28,29
 760 109 760 109 857.5 274.5 c 128,-1,30
 955 440 955 440 955 776 c 256,31,32
 955 1112 955 1112 857.5 1277.5 c 128,-1,33
 760 1443 760 1443 614 1443 c 256,34,35
 468 1443 468 1443 370.5 1277.5 c 128,-1,36
 273 1112 273 1112 273 776 c 256,25,26
EndSplineSet
EndChar

StartChar: R
Encoding: 82 82 53
Width: 1229
GlyphClass: 2
Flags: W
LayerCount: 2
Fore
SplineSet
149 0 m 1,0,-1
 149 1552 l 1,1,-1
 564 1552 l 2,2,3
 767 1552 767 1552 863 1510.5 c 128,-1,4
 959 1469 959 1469 1011.5 1385 c 128,-1,5
 1064 1301 1064 1301 1064 1204 c 0,6,7
 1064 1114 1064 1114 1029 1023 c 128,-1,8
 994 932 994 932 932.5 860.5 c 128,-1,9
 871 789 871 789 755 725 c 1,10,-1
 1204 0 l 1,11,-1
 964 0 l 1,12,-1
 553 659 l 1,13,-1
 351 659 l 1,14,-1
 351 0 l 1,15,-1
 149 0 l 1,0,-1
351 815 m 1,16,-1
 634 815 l 1,17,18
 729 867 729 867 775.5 921 c 128,-1,19
 822 975 822 975 846 1036 c 128,-1,20
 870 1097 870 1097 870 1158 c 0,21,22
 870 1267 870 1267 790.5 1331.5 c 128,-1,23
 711 1396 711 1396 502 1396 c 2,24,-1
 351 1396 l 1,25,-1
 351 815 l 1,16,-1
EndSplineSet
EndChar

StartChar: S
Encoding: 83 83 54
Width: 1229
GlyphClass: 2
Flags: W
LayerCount: 2
Fore
SplineSet
157 33 m 1,0,-1
 157 223 l 1,1,2
 397 109 397 109 593 109 c 0,3,4
 675 109 675 109 750 140.5 c 128,-1,5
 825 172 825 172 863.5 231 c 128,-1,6
 902 290 902 290 902 359 c 0,7,8
 902 440 902 440 849 510.5 c 128,-1,9
 796 581 796 581 650 666 c 2,10,-1
 548 725 l 1,11,-1
 445 784 l 1,12,13
 173 945 173 945 173 1184 c 0,14,15
 173 1359 173 1359 294.5 1478.5 c 128,-1,16
 416 1598 416 1598 674 1598 c 0,17,18
 840 1598 840 1598 995 1550 c 1,19,-1
 995 1377 l 1,20,21
 824 1443 824 1443 662 1443 c 0,22,23
 533 1443 533 1443 453.5 1375 c 128,-1,24
 374 1307 374 1307 374 1211 c 0,25,26
 374 1116 374 1116 435 1053 c 128,-1,27
 496 990 496 990 591 937 c 1,28,-1
 669 890 l 1,29,-1
 766 831 l 1,30,-1
 848 783 l 1,31,32
 1103 627 1103 627 1103 391 c 0,33,34
 1103 211 1103 211 972 82 c 128,-1,35
 841 -47 841 -47 552 -47 c 0,36,37
 460 -47 460 -47 376.5 -31.5 c 128,-1,38
 293 -16 293 -16 157 33 c 1,0,-1
EndSplineSet
EndChar

StartChar: T
Encoding: 84 84 55
Width: 1229
GlyphClass: 2
Flags: W
LayerCount: 2
Fore
SplineSet
48 1381 m 1,0,-1
 48 1552 l 1,1,-1
 1181 1552 l 1,2,-1
 1181 1381 l 1,3,-1
 715 1381 l 1,4,-1
 715 0 l 1,5,-1
 513 0 l 1,6,-1
 513 1381 l 1,7,-1
 48 1381 l 1,0,-1
EndSplineSet
EndChar

StartChar: U
Encoding: 85 85 56
Width: 1229
GlyphClass: 2
Flags: W
LayerCount: 2
Fore
SplineSet
126 559 m 2,0,-1
 126 1552 l 1,1,-1
 328 1552 l 1,2,-1
 328 533 l 2,3,4
 328 332 328 332 361.5 258.5 c 128,-1,5
 395 185 395 185 464.5 146.5 c 128,-1,6
 534 108 534 108 619 108 c 0,7,8
 709 108 709 108 779.5 149.5 c 128,-1,9
 850 191 850 191 883.5 279.5 c 128,-1,10
 917 368 917 368 917 612 c 2,11,-1
 917 1552 l 1,12,-1
 1103 1552 l 1,13,-1
 1103 539 l 2,14,15
 1103 322 1103 322 1038.5 199.5 c 128,-1,16
 974 77 974 77 870 15 c 128,-1,17
 766 -47 766 -47 608 -47 c 0,18,19
 462 -47 462 -47 351 7 c 128,-1,20
 240 61 240 61 183 169 c 128,-1,21
 126 277 126 277 126 559 c 2,0,-1
EndSplineSet
EndChar

StartChar: V
Encoding: 86 86 57
Width: 1229
GlyphClass: 2
Flags: W
LayerCount: 2
Fore
SplineSet
33 1552 m 1,0,-1
 246 1552 l 1,1,-1
 583 468 l 1,2,-1
 627 310 l 1,3,-1
 666 467 l 1,4,-1
 1003 1552 l 1,5,-1
 1197 1552 l 1,6,-1
 719 0 l 1,7,-1
 514 0 l 1,8,-1
 33 1552 l 1,0,-1
EndSplineSet
EndChar

StartChar: W
Encoding: 87 87 58
Width: 1229
GlyphClass: 2
Flags: W
LayerCount: 2
Fore
SplineSet
28 1552 m 1,0,-1
 212 1552 l 1,1,-1
 318 607 l 1,2,-1
 332 450 l 1,3,-1
 337 450 l 1,4,-1
 357 607 l 1,5,-1
 520 1552 l 1,6,-1
 704 1552 l 1,7,-1
 890 569 l 1,8,-1
 909 419 l 1,9,-1
 914 419 l 1,10,-1
 926 570 l 1,11,-1
 1043 1552 l 1,12,-1
 1201 1552 l 1,13,-1
 1013 0 l 1,14,-1
 822 0 l 1,15,-1
 622 1052 l 1,16,-1
 601 1210 l 1,17,-1
 596 1210 l 1,18,-1
 577 1052 l 1,19,-1
 397 0 l 1,20,-1
 208 0 l 1,21,-1
 28 1552 l 1,0,-1
EndSplineSet
EndChar

StartChar: X
Encoding: 88 88 59
Width: 1229
GlyphClass: 2
Flags: W
LayerCount: 2
Fore
SplineSet
48 0 m 1,0,-1
 502 811 l 1,1,-1
 92 1552 l 1,2,-1
 321 1552 l 1,3,-1
 618 1017 l 1,4,-1
 922 1552 l 1,5,-1
 1133 1552 l 1,6,-1
 723 826 l 1,7,-1
 1181 0 l 1,8,-1
 948 0 l 1,9,-1
 607 619 l 1,10,-1
 258 0 l 1,11,-1
 48 0 l 1,0,-1
EndSplineSet
EndChar

StartChar: Y
Encoding: 89 89 60
Width: 1229
GlyphClass: 2
Flags: W
LayerCount: 2
Fore
SplineSet
52 1552 m 1,0,-1
 281 1552 l 1,1,-1
 626 936 l 1,2,-1
 970 1552 l 1,3,-1
 1177 1552 l 1,4,-1
 716 718 l 1,5,-1
 716 0 l 1,6,-1
 514 0 l 1,7,-1
 514 718 l 1,8,-1
 52 1552 l 1,0,-1
EndSplineSet
EndChar

StartChar: Z
Encoding: 90 90 61
Width: 1229
GlyphClass: 2
Flags: W
LayerCount: 2
Fore
SplineSet
122 0 m 1,0,-1
 122 171 l 1,1,-1
 859 1396 l 1,2,-1
 145 1396 l 1,3,-1
 145 1552 l 1,4,-1
 1092 1552 l 1,5,-1
 1092 1396 l 1,6,-1
 356 171 l 1,7,-1
 1107 171 l 1,8,-1
 1107 0 l 1,9,-1
 122 0 l 1,0,-1
EndSplineSet
EndChar

StartChar: bracketleft
Encoding: 91 91 62
Width: 1229
GlyphClass: 2
Flags: W
LayerCount: 2
Fore
SplineSet
355 -372 m 1,0,-1
 355 1645 l 1,1,-1
 1162 1645 l 1,2,-1
 1162 1489 l 1,3,-1
 541 1489 l 1,4,-1
 541 -217 l 1,5,-1
 1162 -217 l 1,6,-1
 1162 -372 l 1,7,-1
 355 -372 l 1,0,-1
EndSplineSet
EndChar

StartChar: backslash
Encoding: 92 92 63
Width: 1229
GlyphClass: 2
Flags: W
LayerCount: 2
Fore
SplineSet
33 1598 m 1,0,-1
 210 1598 l 1,1,-1
 1197 -47 l 1,2,-1
 1014 -47 l 1,3,-1
 33 1598 l 1,0,-1
EndSplineSet
EndChar

StartChar: bracketright
Encoding: 93 93 64
Width: 1229
GlyphClass: 2
Flags: W
LayerCount: 2
Fore
SplineSet
67 -217 m 1,0,-1
 688 -217 l 1,1,-1
 688 1489 l 1,2,-1
 67 1489 l 1,3,-1
 67 1645 l 1,4,-1
 874 1645 l 1,5,-1
 874 -372 l 1,6,-1
 67 -372 l 1,7,-1
 67 -217 l 1,0,-1
EndSplineSet
EndChar

StartChar: asciicircum
Encoding: 94 94 65
Width: 1229
GlyphClass: 2
Flags: W
LayerCount: 2
Fore
SplineSet
71 465 m 1,0,-1
 614 1552 l 1,1,-1
 1157 465 l 1,2,-1
 986 465 l 1,3,-1
 614 1212 l 1,4,-1
 242 465 l 1,5,-1
 71 465 l 1,0,-1
EndSplineSet
EndChar

StartChar: underscore
Encoding: 95 95 66
Width: 1229
GlyphClass: 2
Flags: W
LayerCount: 2
Fore
SplineSet
71 0 m 1,0,-1
 1157 0 l 1,1,-1
 1157 -155 l 1,2,-1
 71 -155 l 1,3,-1
 71 0 l 1,0,-1
EndSplineSet
EndChar

StartChar: grave
Encoding: 96 96 67
Width: 1229
GlyphClass: 2
Flags: W
LayerCount: 2
Fore
SplineSet
320 1614 m 1,0,-1
 536 1614 l 1,1,-1
 832 1288 l 1,2,-1
 662 1288 l 1,3,-1
 320 1614 l 1,0,-1
EndSplineSet
EndChar

StartChar: a
Encoding: 97 97 68
Width: 1229
GlyphClass: 2
Flags: W
LayerCount: 2
Fore
SplineSet
102 457 m 0,0,1
 102 651 102 651 176 803.5 c 128,-1,2
 250 956 250 956 374 1044.5 c 128,-1,3
 498 1133 498 1133 681 1133 c 0,4,5
 734 1133 734 1133 841 1122 c 0,6,7
 857 1120 857 1120 889 1117 c 1,8,-1
 1076 1117 l 1,9,-1
 1076 328 l 2,10,11
 1076 126 1076 126 1118 0 c 1,12,-1
 924 0 l 1,13,14
 902 92 902 92 889 251 c 1,15,16
 804 111 804 111 684.5 40 c 128,-1,17
 565 -31 565 -31 465 -31 c 0,18,19
 325 -31 325 -31 213.5 90 c 128,-1,20
 102 211 102 211 102 457 c 0,0,1
304 482 m 0,21,22
 304 316 304 316 366.5 231.5 c 128,-1,23
 429 147 429 147 509 147 c 0,24,25
 596 147 596 147 701 235 c 128,-1,26
 806 323 806 323 889 472 c 1,27,-1
 889 951 l 1,28,29
 790 977 790 977 705 977 c 0,30,31
 533 977 533 977 418.5 844 c 128,-1,32
 304 711 304 711 304 482 c 0,21,22
EndSplineSet
EndChar

StartChar: b
Encoding: 98 98 69
Width: 1229
GlyphClass: 2
Flags: W
LayerCount: 2
Fore
SplineSet
141 0 m 1,0,-1
 141 1614 l 1,1,-1
 327 1614 l 1,2,-1
 327 866 l 1,3,4
 413 1006 413 1006 532 1077 c 128,-1,5
 651 1148 651 1148 751 1148 c 0,6,7
 891 1148 891 1148 1003 1027 c 128,-1,8
 1115 906 1115 906 1115 660 c 0,9,10
 1115 466 1115 466 1040.5 313.5 c 128,-1,11
 966 161 966 161 842 72.5 c 128,-1,12
 718 -16 718 -16 535 -16 c 0,13,14
 483 -16 483 -16 375 -5 c 0,15,16
 359 -3 359 -3 327 0 c 1,17,-1
 141 0 l 1,0,-1
327 166 m 1,18,19
 428 140 428 140 513 140 c 0,20,21
 682 140 682 140 797.5 272.5 c 128,-1,22
 913 405 913 405 913 635 c 0,23,24
 913 802 913 802 850 886 c 128,-1,25
 787 970 787 970 707 970 c 0,26,27
 620 970 620 970 515.5 882 c 128,-1,28
 411 794 411 794 327 645 c 1,29,-1
 327 166 l 1,18,19
EndSplineSet
EndChar

StartChar: c
Encoding: 99 99 70
Width: 1229
GlyphClass: 2
Flags: W
LayerCount: 2
Fore
SplineSet
164 558 m 0,0,1
 164 812 164 812 329.5 980 c 128,-1,2
 495 1148 495 1148 729 1148 c 0,3,4
 902 1148 902 1148 1095 1083 c 1,5,-1
 1095 904 l 1,6,7
 900 993 900 993 746 993 c 0,8,9
 644 993 644 993 554 942.5 c 128,-1,10
 464 892 464 892 415 785 c 128,-1,11
 366 678 366 678 366 565 c 0,12,13
 366 414 366 414 460.5 277 c 128,-1,14
 555 140 555 140 757 140 c 0,15,16
 818 140 818 140 877 148.5 c 128,-1,17
 936 157 936 157 1095 211 c 1,18,-1
 1095 32 l 1,19,20
 908 -31 908 -31 739 -31 c 0,21,22
 571 -31 571 -31 440.5 46.5 c 128,-1,23
 310 124 310 124 237 256.5 c 128,-1,24
 164 389 164 389 164 558 c 0,0,1
EndSplineSet
EndChar

StartChar: d
Encoding: 100 100 71
Width: 1229
GlyphClass: 2
Flags: W
LayerCount: 2
Fore
SplineSet
114 457 m 0,0,1
 114 651 114 651 188 803.5 c 128,-1,2
 262 956 262 956 386 1044.5 c 128,-1,3
 510 1133 510 1133 693 1133 c 0,4,5
 746 1133 746 1133 853 1122 c 0,6,7
 869 1120 869 1120 901 1117 c 1,8,-1
 901 1614 l 1,9,-1
 1088 1614 l 1,10,-1
 1088 0 l 1,11,-1
 901 0 l 1,12,-1
 901 251 l 1,13,14
 816 111 816 111 696.5 40 c 128,-1,15
 577 -31 577 -31 477 -31 c 0,16,17
 337 -31 337 -31 225.5 90 c 128,-1,18
 114 211 114 211 114 457 c 0,0,1
316 482 m 0,19,20
 316 316 316 316 378.5 231.5 c 128,-1,21
 441 147 441 147 521 147 c 0,22,23
 608 147 608 147 713 235 c 128,-1,24
 818 323 818 323 901 472 c 1,25,-1
 901 951 l 1,26,27
 802 977 802 977 717 977 c 0,28,29
 545 977 545 977 430.5 844 c 128,-1,30
 316 711 316 711 316 482 c 0,19,20
EndSplineSet
EndChar

StartChar: e
Encoding: 101 101 72
Width: 1229
GlyphClass: 2
Flags: W
LayerCount: 2
Fore
SplineSet
130 556 m 0,0,1
 130 709 130 709 198 850 c 128,-1,2
 266 991 266 991 388 1069.5 c 128,-1,3
 510 1148 510 1148 660 1148 c 0,4,5
 859 1148 859 1148 979.5 1006 c 128,-1,6
 1100 864 1100 864 1100 568 c 2,7,-1
 1100 528 l 1,8,-1
 330 528 l 1,9,10
 330 412 330 412 378.5 316 c 128,-1,11
 427 220 427 220 506 172 c 128,-1,12
 585 124 585 124 686 124 c 0,13,14
 866 124 866 124 1084 244 c 1,15,-1
 1084 74 l 1,16,17
 861 -32 861 -32 662 -32 c 0,18,19
 511 -32 511 -32 392 43 c 128,-1,20
 273 118 273 118 201.5 257.5 c 128,-1,21
 130 397 130 397 130 556 c 0,0,1
341 667 m 1,22,-1
 898 667 l 1,23,-1
 898 694 l 2,24,25
 898 831 898 831 831 912 c 128,-1,26
 764 993 764 993 652 993 c 0,27,28
 539 993 539 993 456.5 910.5 c 128,-1,29
 374 828 374 828 341 667 c 1,22,-1
EndSplineSet
EndChar

StartChar: f
Encoding: 102 102 73
Width: 1229
GlyphClass: 2
Flags: W
LayerCount: 2
Fore
SplineSet
167 869 m 1,0,-1
 167 1024 l 1,1,-1
 415 1024 l 1,2,-1
 415 1076 l 2,3,4
 415 1297 415 1297 465 1403 c 128,-1,5
 515 1509 515 1509 619.5 1577 c 128,-1,6
 724 1645 724 1645 896 1645 c 0,7,8
 1026 1645 1026 1645 1160 1618 c 1,9,-1
 1160 1441 l 1,10,11
 1015 1489 1015 1489 903 1489 c 0,12,13
 814 1489 814 1489 746 1456 c 128,-1,14
 678 1423 678 1423 639.5 1348.5 c 128,-1,15
 601 1274 601 1274 601 1096 c 2,16,-1
 601 1024 l 1,17,-1
 1044 1024 l 1,18,-1
 1044 869 l 1,19,-1
 601 869 l 1,20,-1
 601 0 l 1,21,-1
 415 0 l 1,22,-1
 415 869 l 1,23,-1
 167 869 l 1,0,-1
EndSplineSet
EndChar

StartChar: g
Encoding: 103 103 74
Width: 1229
GlyphClass: 2
Flags: W
LayerCount: 2
Fore
SplineSet
114 457 m 0,0,1
 114 651 114 651 188 803.5 c 128,-1,2
 262 956 262 956 386 1044.5 c 128,-1,3
 510 1133 510 1133 693 1133 c 0,4,5
 746 1133 746 1133 853 1122 c 0,6,7
 869 1120 869 1120 901 1117 c 1,8,-1
 1088 1117 l 1,9,-1
 1088 327 l 2,10,11
 1088 45 1088 45 1080.5 -17.5 c 128,-1,12
 1073 -80 1073 -80 1056 -144 c 0,13,14
 1016 -293 1016 -293 873.5 -379 c 128,-1,15
 731 -465 731 -465 529 -465 c 0,16,17
 326 -465 326 -465 118 -361 c 1,18,-1
 118 -173 l 1,19,20
 197 -227 197 -227 312.5 -268.5 c 128,-1,21
 428 -310 428 -310 536 -310 c 0,22,23
 621 -310 621 -310 697 -283 c 128,-1,24
 773 -256 773 -256 820 -205 c 256,25,26
 867 -154 867 -154 884 -86.5 c 128,-1,27
 901 -19 901 -19 901 93 c 2,28,-1
 901 251 l 1,29,30
 816 111 816 111 696.5 40 c 128,-1,31
 577 -31 577 -31 477 -31 c 0,32,33
 337 -31 337 -31 225.5 90 c 128,-1,34
 114 211 114 211 114 457 c 0,0,1
316 482 m 0,35,36
 316 316 316 316 378.5 231.5 c 128,-1,37
 441 147 441 147 521 147 c 0,38,39
 608 147 608 147 713 235 c 128,-1,40
 818 323 818 323 901 472 c 1,41,-1
 901 951 l 1,42,43
 802 977 802 977 717 977 c 0,44,45
 545 977 545 977 430.5 844 c 128,-1,46
 316 711 316 711 316 482 c 0,35,36
EndSplineSet
EndChar

StartChar: h
Encoding: 104 104 75
Width: 1229
GlyphClass: 2
Flags: W
LayerCount: 2
Fore
SplineSet
155 0 m 1,0,-1
 155 1614 l 1,1,-1
 341 1614 l 1,2,-1
 341 873 l 1,3,4
 421 1002 421 1002 534 1075 c 128,-1,5
 647 1148 647 1148 760 1148 c 0,6,7
 855 1148 855 1148 933.5 1099.5 c 128,-1,8
 1012 1051 1012 1051 1043 982 c 1,9,10
 1068 929 1068 929 1077 869.5 c 128,-1,11
 1086 810 1086 810 1086 624 c 2,12,-1
 1086 0 l 1,13,-1
 900 0 l 1,14,-1
 900 647 l 2,15,16
 900 808 900 808 884.5 859.5 c 128,-1,17
 869 911 869 911 827.5 944 c 128,-1,18
 786 977 786 977 737 977 c 0,19,20
 639 977 639 977 526.5 884 c 128,-1,21
 414 791 414 791 341 651 c 1,22,-1
 341 0 l 1,23,-1
 155 0 l 1,0,-1
EndSplineSet
EndChar

StartChar: i
Encoding: 105 105 76
Width: 1229
GlyphClass: 2
Flags: W
LayerCount: 2
Fore
SplineSet
158 962 m 1,0,-1
 158 1117 l 1,1,-1
 654 1117 l 1,2,-1
 654 155 l 1,3,-1
 965 155 l 1,4,-1
 965 0 l 1,5,-1
 468 0 l 1,6,-1
 468 962 l 1,7,-1
 158 962 l 1,0,-1
437 1520 m 0,8,9
 437 1583 437 1583 480 1614 c 128,-1,10
 523 1645 523 1645 561 1645 c 0,11,12
 600 1645 600 1645 643 1614 c 128,-1,13
 686 1583 686 1583 686 1520 c 0,14,15
 686 1458 686 1458 643 1427 c 128,-1,16
 600 1396 600 1396 561 1396 c 0,17,18
 523 1396 523 1396 480 1427 c 128,-1,19
 437 1458 437 1458 437 1520 c 0,8,9
EndSplineSet
EndChar

StartChar: j
Encoding: 106 106 77
Width: 1229
GlyphClass: 2
Flags: W
LayerCount: 2
Fore
SplineSet
172 -264 m 1,0,1
 328 -310 328 -310 435 -310 c 0,2,3
 528 -310 528 -310 593 -277.5 c 128,-1,4
 658 -245 658 -245 694.5 -168 c 128,-1,5
 731 -91 731 -91 731 100 c 2,6,-1
 731 962 l 1,7,-1
 257 962 l 1,8,-1
 257 1117 l 1,9,-1
 917 1117 l 1,10,-1
 917 135 l 2,11,12
 917 -149 917 -149 850 -259.5 c 128,-1,13
 783 -370 783 -370 688 -418 c 128,-1,14
 593 -466 593 -466 428 -466 c 0,15,16
 309 -466 309 -466 172 -438 c 1,17,-1
 172 -264 l 1,0,1
700 1520 m 0,18,19
 700 1583 700 1583 742.5 1614 c 128,-1,20
 785 1645 785 1645 824 1645 c 256,21,22
 863 1645 863 1645 905.5 1614 c 128,-1,23
 948 1583 948 1583 948 1520 c 0,24,25
 948 1458 948 1458 905.5 1427 c 128,-1,26
 863 1396 863 1396 824 1396 c 256,27,28
 785 1396 785 1396 742.5 1427 c 128,-1,29
 700 1458 700 1458 700 1520 c 0,18,19
EndSplineSet
EndChar

StartChar: k
Encoding: 107 107 78
Width: 1229
GlyphClass: 2
Flags: W
LayerCount: 2
Fore
SplineSet
205 0 m 1,0,-1
 205 1614 l 1,1,-1
 391 1614 l 1,2,-1
 391 600 l 1,3,-1
 928 1117 l 1,4,-1
 1176 1117 l 1,5,-1
 640 600 l 1,6,-1
 1190 0 l 1,7,-1
 934 0 l 1,8,-1
 391 600 l 1,9,-1
 391 0 l 1,10,-1
 205 0 l 1,0,-1
EndSplineSet
EndChar

StartChar: l
Encoding: 108 108 79
Width: 1229
GlyphClass: 2
Flags: W
LayerCount: 2
Fore
SplineSet
121 1458 m 1,0,-1
 121 1614 l 1,1,-1
 641 1614 l 1,2,-1
 641 155 l 1,3,-1
 990 155 l 1,4,-1
 990 0 l 1,5,-1
 455 0 l 1,6,-1
 455 1458 l 1,7,-1
 121 1458 l 1,0,-1
EndSplineSet
EndChar

StartChar: m
Encoding: 109 109 80
Width: 1229
GlyphClass: 2
Flags: W
LayerCount: 2
Fore
SplineSet
71 0 m 1,0,-1
 71 1117 l 1,1,-1
 234 1117 l 1,2,-1
 234 861 l 1,3,4
 311 1024 311 1024 377.5 1086 c 128,-1,5
 444 1148 444 1148 512 1148 c 0,6,7
 593 1148 593 1148 642.5 1084.5 c 128,-1,8
 692 1021 692 1021 692 904 c 2,9,-1
 692 844 l 1,10,11
 725 946 725 946 771.5 1009.5 c 128,-1,12
 818 1073 818 1073 868 1110.5 c 128,-1,13
 918 1148 918 1148 983 1148 c 0,14,15
 1055 1148 1055 1148 1106 1087 c 128,-1,16
 1157 1026 1157 1026 1157 844 c 2,17,-1
 1157 0 l 1,18,-1
 994 0 l 1,19,-1
 994 763 l 2,20,21
 994 857 994 857 988 891.5 c 128,-1,22
 982 926 982 926 964 944 c 128,-1,23
 946 962 946 962 925 962 c 0,24,25
 873 962 873 962 813.5 882.5 c 128,-1,26
 754 803 754 803 692 619 c 1,27,-1
 692 0 l 1,28,-1
 536 0 l 1,29,-1
 536 762 l 2,30,31
 536 910 536 910 507 936 c 128,-1,32
 478 962 478 962 455 962 c 0,33,34
 404 962 404 962 345.5 873 c 128,-1,35
 287 784 287 784 234 645 c 1,36,-1
 234 0 l 1,37,-1
 71 0 l 1,0,-1
EndSplineSet
EndChar

StartChar: n
Encoding: 110 110 81
Width: 1229
GlyphClass: 2
Flags: W
LayerCount: 2
Fore
SplineSet
155 0 m 1,0,-1
 155 1117 l 1,1,-1
 341 1117 l 1,2,-1
 341 873 l 1,3,4
 421 1002 421 1002 534 1075 c 128,-1,5
 647 1148 647 1148 760 1148 c 0,6,7
 859 1148 859 1148 940 1095.5 c 128,-1,8
 1021 1043 1021 1043 1053.5 958 c 128,-1,9
 1086 873 1086 873 1086 624 c 2,10,-1
 1086 0 l 1,11,-1
 900 0 l 1,12,-1
 900 647 l 2,13,14
 900 808 900 808 884.5 859.5 c 128,-1,15
 869 911 869 911 827.5 944 c 128,-1,16
 786 977 786 977 737 977 c 0,17,18
 639 977 639 977 526.5 884 c 128,-1,19
 414 791 414 791 341 651 c 1,20,-1
 341 0 l 1,21,-1
 155 0 l 1,0,-1
EndSplineSet
EndChar

StartChar: o
Encoding: 111 111 82
Width: 1229
GlyphClass: 2
Flags: W
LayerCount: 2
Fore
SplineSet
87 559 m 256,0,1
 87 814 87 814 231 981 c 128,-1,2
 375 1148 375 1148 615 1148 c 0,3,4
 854 1148 854 1148 998 981 c 128,-1,5
 1142 814 1142 814 1142 559 c 256,6,7
 1142 304 1142 304 998 136.5 c 128,-1,8
 854 -31 854 -31 615 -31 c 0,9,10
 375 -31 375 -31 231 136.5 c 128,-1,11
 87 304 87 304 87 559 c 256,0,1
289 559 m 0,12,13
 289 356 289 356 377 240 c 128,-1,14
 465 124 465 124 615 124 c 0,15,16
 764 124 764 124 852 240 c 128,-1,17
 940 356 940 356 940 559 c 0,18,19
 940 761 940 761 852 877 c 128,-1,20
 764 993 764 993 615 993 c 0,21,22
 465 993 465 993 377 877 c 128,-1,23
 289 761 289 761 289 559 c 0,12,13
EndSplineSet
EndChar

StartChar: p
Encoding: 112 112 83
Width: 1229
GlyphClass: 2
Flags: W
LayerCount: 2
Fore
SplineSet
141 -434 m 1,0,-1
 141 1117 l 1,1,-1
 327 1117 l 1,2,-1
 327 866 l 1,3,4
 413 1006 413 1006 532 1077 c 128,-1,5
 651 1148 651 1148 751 1148 c 0,6,7
 891 1148 891 1148 1003 1027 c 128,-1,8
 1115 906 1115 906 1115 660 c 0,9,10
 1115 466 1115 466 1040.5 313.5 c 128,-1,11
 966 161 966 161 842 72.5 c 128,-1,12
 718 -16 718 -16 535 -16 c 0,13,14
 483 -16 483 -16 375 -5 c 0,15,16
 359 -3 359 -3 327 0 c 1,17,-1
 327 -434 l 1,18,-1
 141 -434 l 1,0,-1
327 166 m 1,19,20
 428 140 428 140 513 140 c 0,21,22
 682 140 682 140 797.5 272.5 c 128,-1,23
 913 405 913 405 913 635 c 0,24,25
 913 802 913 802 850 886 c 128,-1,26
 787 970 787 970 707 970 c 0,27,28
 620 970 620 970 515.5 882 c 128,-1,29
 411 794 411 794 327 645 c 1,30,-1
 327 166 l 1,19,20
EndSplineSet
EndChar

StartChar: q
Encoding: 113 113 84
Width: 1229
GlyphClass: 2
Flags: W
LayerCount: 2
Fore
SplineSet
114 457 m 0,0,1
 114 651 114 651 188 803.5 c 128,-1,2
 262 956 262 956 386 1044.5 c 128,-1,3
 510 1133 510 1133 693 1133 c 0,4,5
 746 1133 746 1133 853 1122 c 0,6,7
 869 1120 869 1120 901 1117 c 1,8,-1
 1088 1117 l 1,9,-1
 1088 -434 l 1,10,-1
 901 -434 l 1,11,-1
 901 251 l 1,12,13
 816 111 816 111 696.5 40 c 128,-1,14
 577 -31 577 -31 477 -31 c 0,15,16
 337 -31 337 -31 225.5 90 c 128,-1,17
 114 211 114 211 114 457 c 0,0,1
316 482 m 0,18,19
 316 316 316 316 378.5 231.5 c 128,-1,20
 441 147 441 147 521 147 c 0,21,22
 608 147 608 147 713 235 c 128,-1,23
 818 323 818 323 901 472 c 1,24,-1
 901 951 l 1,25,26
 802 977 802 977 717 977 c 0,27,28
 545 977 545 977 430.5 844 c 128,-1,29
 316 711 316 711 316 482 c 0,18,19
EndSplineSet
EndChar

StartChar: r
Encoding: 114 114 85
Width: 1229
GlyphClass: 2
Flags: W
LayerCount: 2
Fore
SplineSet
250 0 m 1,0,-1
 250 1117 l 1,1,-1
 436 1117 l 1,2,-1
 436 873 l 1,3,4
 523 1011 523 1011 635.5 1079.5 c 128,-1,5
 748 1148 748 1148 886 1148 c 0,6,7
 987 1148 987 1148 1088 1117 c 1,8,-1
 1088 714 l 1,9,-1
 909 714 l 1,10,-1
 909 969 l 1,11,12
 862 977 862 977 835 977 c 0,13,14
 731 977 731 977 631 895 c 128,-1,15
 531 813 531 813 436 649 c 1,16,-1
 436 0 l 1,17,-1
 250 0 l 1,0,-1
EndSplineSet
EndChar

StartChar: s
Encoding: 115 115 86
Width: 1229
GlyphClass: 2
Flags: W
LayerCount: 2
Fore
SplineSet
168 59 m 1,0,-1
 168 256 l 1,1,2
 280 183 280 183 405 153.5 c 128,-1,3
 530 124 530 124 617 124 c 0,4,5
 758 124 758 124 820 169.5 c 128,-1,6
 882 215 882 215 882 283 c 0,7,8
 882 328 882 328 853 360 c 256,9,10
 824 392 824 392 709 439 c 2,11,-1
 645 465 l 1,12,-1
 516 516 l 1,13,14
 308 597 308 597 254 666 c 1,15,16
 199 734 199 734 199 832 c 0,17,18
 199 970 199 970 305.5 1059 c 128,-1,19
 412 1148 412 1148 651 1148 c 0,20,21
 830 1148 830 1148 990 1096 c 1,22,-1
 990 927 l 1,23,24
 806 993 806 993 644 993 c 0,25,26
 526 993 526 993 459.5 951.5 c 128,-1,27
 393 910 393 910 393 848 c 0,28,29
 393 788 393 788 451 752 c 0,30,31
 508 716 508 716 637 669 c 2,32,-1
 763 623 l 2,33,34
 936 560 936 560 1006 486 c 256,35,36
 1076 412 1076 412 1076 301 c 0,37,38
 1076 156 1076 156 964.5 62.5 c 128,-1,39
 853 -31 853 -31 608 -31 c 0,40,41
 394 -31 394 -31 168 59 c 1,0,-1
EndSplineSet
EndChar

StartChar: t
Encoding: 116 116 87
Width: 1229
GlyphClass: 2
Flags: W
LayerCount: 2
Fore
SplineSet
96 869 m 1,0,-1
 96 1024 l 1,1,-1
 375 1024 l 1,2,-1
 375 1474 l 1,3,-1
 561 1474 l 1,4,-1
 561 1024 l 1,5,-1
 1058 1024 l 1,6,-1
 1058 869 l 1,7,-1
 561 869 l 1,8,-1
 561 422 l 2,9,10
 561 287 561 287 593 231.5 c 128,-1,11
 625 176 625 176 678.5 150 c 128,-1,12
 732 124 732 124 805 124 c 0,13,14
 940 124 940 124 1089 209 c 1,15,-1
 1089 45 l 1,16,17
 958 -10 958 -10 899 -20.5 c 128,-1,18
 840 -31 840 -31 785 -31 c 0,19,20
 668 -31 668 -31 571 14 c 128,-1,21
 474 59 474 59 424.5 147 c 128,-1,22
 375 235 375 235 375 419 c 2,23,-1
 375 869 l 1,24,-1
 96 869 l 1,0,-1
EndSplineSet
EndChar

StartChar: u
Encoding: 117 117 88
Width: 1229
GlyphClass: 2
Flags: W
LayerCount: 2
Fore
SplineSet
143 493 m 2,0,-1
 143 1117 l 1,1,-1
 329 1117 l 1,2,-1
 329 470 l 2,3,4
 329 309 329 309 344.5 257.5 c 128,-1,5
 360 206 360 206 401.5 173 c 128,-1,6
 443 140 443 140 491 140 c 0,7,8
 589 140 589 140 701.5 232.5 c 128,-1,9
 814 325 814 325 888 466 c 1,10,-1
 888 1117 l 1,11,-1
 1074 1117 l 1,12,-1
 1074 0 l 1,13,-1
 888 0 l 1,14,-1
 888 245 l 1,15,16
 798 107 798 107 688 38 c 128,-1,17
 578 -31 578 -31 468 -31 c 0,18,19
 370 -31 370 -31 288.5 21.5 c 128,-1,20
 207 74 207 74 175 159.5 c 128,-1,21
 143 245 143 245 143 493 c 2,0,-1
EndSplineSet
EndChar

StartChar: v
Encoding: 118 118 89
Width: 1229
GlyphClass: 2
Flags: W
LayerCount: 2
Fore
SplineSet
33 1117 m 1,0,-1
 237 1117 l 1,1,-1
 620 233 l 1,2,-1
 1011 1117 l 1,3,-1
 1197 1117 l 1,4,-1
 708 0 l 1,5,-1
 518 0 l 1,6,-1
 33 1117 l 1,0,-1
EndSplineSet
EndChar

StartChar: w
Encoding: 119 119 90
Width: 1229
GlyphClass: 2
Flags: W
LayerCount: 2
Fore
SplineSet
20 1117 m 1,0,-1
 193 1117 l 1,1,-1
 299 437 l 1,2,-1
 327 279 l 1,3,-1
 354 437 l 1,4,-1
 532 1117 l 1,5,-1
 699 1117 l 1,6,-1
 900 437 l 1,7,-1
 935 279 l 1,8,-1
 958 437 l 1,9,-1
 1065 1117 l 1,10,-1
 1208 1117 l 1,11,-1
 1027 0 l 1,12,-1
 853 0 l 1,13,-1
 639 719 l 1,14,-1
 605 877 l 1,15,-1
 600 877 l 1,16,-1
 569 720 l 1,17,-1
 383 0 l 1,18,-1
 202 0 l 1,19,-1
 20 1117 l 1,0,-1
EndSplineSet
EndChar

StartChar: x
Encoding: 120 120 91
Width: 1229
GlyphClass: 2
Flags: W
LayerCount: 2
Fore
SplineSet
56 0 m 1,0,-1
 495 585 l 1,1,-1
 85 1117 l 1,2,-1
 323 1117 l 1,3,-1
 614 742 l 1,4,-1
 897 1117 l 1,5,-1
 1108 1117 l 1,6,-1
 720 603 l 1,7,-1
 1181 0 l 1,8,-1
 942 0 l 1,9,-1
 602 445 l 1,10,-1
 271 0 l 1,11,-1
 56 0 l 1,0,-1
EndSplineSet
EndChar

StartChar: y
Encoding: 121 121 92
Width: 1229
GlyphClass: 2
Flags: W
LayerCount: 2
Fore
SplineSet
32 -287 m 1,0,1
 109 -311 109 -311 179 -311 c 0,2,3
 269 -311 269 -311 339 -276 c 128,-1,4
 409 -241 409 -241 467 -152 c 128,-1,5
 525 -63 525 -63 549 2 c 1,6,-1
 566 45 l 1,7,-1
 50 1117 l 1,8,-1
 255 1117 l 1,9,-1
 666 279 l 1,10,-1
 1010 1117 l 1,11,-1
 1197 1117 l 1,12,-1
 764 79 l 2,13,14
 627 -250 627 -250 503.5 -358 c 128,-1,15
 380 -466 380 -466 184 -466 c 0,16,17
 99 -466 99 -466 32 -451 c 1,18,-1
 32 -287 l 1,0,1
EndSplineSet
EndChar

StartChar: z
Encoding: 122 122 93
Width: 1229
GlyphClass: 2
Flags: W
LayerCount: 2
Fore
SplineSet
133 0 m 1,0,-1
 133 171 l 1,1,-1
 818 962 l 1,2,-1
 149 962 l 1,3,-1
 149 1117 l 1,4,-1
 1064 1117 l 1,5,-1
 1064 962 l 1,6,-1
 374 171 l 1,7,-1
 1087 171 l 1,8,-1
 1087 0 l 1,9,-1
 133 0 l 1,0,-1
EndSplineSet
EndChar

StartChar: braceleft
Encoding: 123 123 94
Width: 1229
GlyphClass: 2
Flags: W
LayerCount: 2
Fore
SplineSet
211 559 m 1,0,-1
 211 714 l 1,1,-1
 300 714 l 2,2,3
 456 714 456 714 519.5 779 c 128,-1,4
 583 844 583 844 583 941 c 0,5,6
 583 977 583 977 576 1011 c 2,7,-1
 564 1063 l 1,8,-1
 547 1150 l 1,9,-1
 529 1230 l 2,10,11
 514 1299 514 1299 514 1358 c 0,12,13
 514 1468 514 1468 593 1556.5 c 128,-1,14
 672 1645 672 1645 946 1645 c 2,15,-1
 1103 1645 l 1,16,-1
 1103 1489 l 1,17,-1
 948 1489 l 2,18,19
 801 1489 801 1489 753 1446.5 c 128,-1,20
 705 1404 705 1404 705 1342 c 0,21,22
 705 1298 705 1298 725 1205 c 2,23,-1
 750 1091 l 2,24,25
 770 999 770 999 770 942 c 0,26,27
 770 878 770 878 748.5 828.5 c 128,-1,28
 727 779 727 779 683.5 732 c 128,-1,29
 640 685 640 685 547 636 c 1,30,31
 640 587 640 587 683.5 540 c 128,-1,32
 727 493 727 493 748.5 443.5 c 128,-1,33
 770 394 770 394 770 330 c 0,34,35
 770 273 770 273 750 181 c 2,36,-1
 725 67 l 2,37,38
 705 -26 705 -26 705 -71 c 0,39,40
 705 -132 705 -132 752.5 -174.5 c 128,-1,41
 800 -217 800 -217 948 -217 c 2,42,-1
 1103 -217 l 1,43,-1
 1103 -372 l 1,44,-1
 946 -372 l 2,45,46
 672 -372 672 -372 593 -284 c 128,-1,47
 514 -196 514 -196 514 -85 c 0,48,49
 514 -26 514 -26 529 42 c 2,50,-1
 547 122 l 1,51,-1
 564 209 l 1,52,-1
 576 262 l 1,53,54
 583 299 583 299 583 334 c 0,55,56
 583 427 583 427 520.5 493 c 128,-1,57
 458 559 458 559 300 559 c 2,58,-1
 211 559 l 1,0,-1
EndSplineSet
EndChar

StartChar: bar
Encoding: 124 124 95
Width: 1229
GlyphClass: 2
Flags: W
LayerCount: 2
Fore
SplineSet
533 -47 m 1,0,-1
 533 1598 l 1,1,-1
 696 1598 l 1,2,-1
 696 -47 l 1,3,-1
 533 -47 l 1,0,-1
EndSplineSet
EndChar

StartChar: braceright
Encoding: 125 125 96
Width: 1229
GlyphClass: 2
Flags: W
LayerCount: 2
Fore
SplineSet
126 -217 m 1,0,-1
 281 -217 l 2,1,2
 429 -217 429 -217 476.5 -174.5 c 128,-1,3
 524 -132 524 -132 524 -70 c 0,4,5
 524 -26 524 -26 504 67 c 2,6,-1
 479 181 l 1,7,8
 460 273 460 273 460 330 c 0,9,10
 460 394 460 394 481 443.5 c 128,-1,11
 502 493 502 493 545.5 540 c 128,-1,12
 589 587 589 587 682 636 c 1,13,14
 589 685 589 685 545.5 732 c 128,-1,15
 502 779 502 779 481 828.5 c 128,-1,16
 460 878 460 878 460 942 c 0,17,18
 460 999 460 999 479 1091 c 1,19,-1
 504 1205 l 2,20,21
 524 1298 524 1298 524 1343 c 0,22,23
 524 1404 524 1404 476.5 1446.5 c 128,-1,24
 429 1489 429 1489 281 1489 c 2,25,-1
 126 1489 l 1,26,-1
 126 1645 l 1,27,-1
 283 1645 l 2,28,29
 557 1645 557 1645 636.5 1556.5 c 128,-1,30
 716 1468 716 1468 716 1358 c 0,31,32
 716 1298 716 1298 700 1230 c 2,33,-1
 682 1150 l 1,34,-1
 665 1063 l 1,35,-1
 653 1011 l 1,36,37
 646 973 646 973 646 938 c 0,38,39
 646 846 646 846 708.5 780 c 128,-1,40
 771 714 771 714 929 714 c 2,41,-1
 1018 714 l 1,42,-1
 1018 559 l 1,43,-1
 929 559 l 2,44,45
 773 559 773 559 709.5 493.5 c 128,-1,46
 646 428 646 428 646 331 c 0,47,48
 646 296 646 296 653 262 c 2,49,-1
 665 209 l 1,50,-1
 682 122 l 1,51,-1
 700 42 l 2,52,53
 716 -27 716 -27 716 -86 c 0,54,55
 716 -197 716 -197 636.5 -284.5 c 128,-1,56
 557 -372 557 -372 283 -372 c 2,57,-1
 126 -372 l 1,58,-1
 126 -217 l 1,0,-1
EndSplineSet
EndChar

StartChar: asciitilde
Encoding: 126 126 97
Width: 1229
GlyphClass: 2
Flags: W
LayerCount: 2
Fore
SplineSet
56 403 m 1,0,-1
 56 421 l 2,1,2
 56 552 56 552 133.5 648.5 c 128,-1,3
 211 745 211 745 342 745 c 0,4,5
 375 745 375 745 406.5 738.5 c 128,-1,6
 438 732 438 732 478 716.5 c 128,-1,7
 518 701 518 701 598 656 c 2,8,-1
 719 589 l 2,9,10
 830 528 830 528 900 528 c 0,11,12
 974 528 974 528 1009.5 581.5 c 128,-1,13
 1045 635 1045 635 1045 698 c 2,14,-1
 1045 714 l 1,15,-1
 1173 714 l 1,16,-1
 1173 698 l 2,17,18
 1173 531 1173 531 1078.5 451.5 c 128,-1,19
 984 372 984 372 878 372 c 0,20,21
 779 372 779 372 616 465 c 1,22,-1
 514 524 l 2,23,24
 398 590 398 590 327 590 c 0,25,26
 287 590 287 590 252.5 569 c 128,-1,27
 218 548 218 548 197 502 c 128,-1,28
 176 456 176 456 176 421 c 2,29,-1
 176 403 l 1,30,-1
 56 403 l 1,0,-1
EndSplineSet
EndChar

StartChar: exclamdown
Encoding: 161 161 99
Width: 1229
GlyphClass: 2
Flags: W
LayerCount: 2
Fore
SplineSet
471 1005 m 0,0,1
 471 1062 471 1062 514.5 1105 c 128,-1,2
 558 1148 558 1148 615 1148 c 0,3,4
 671 1148 671 1148 714.5 1105 c 128,-1,5
 758 1062 758 1062 758 1005 c 0,6,7
 758 947 758 947 714.5 904 c 128,-1,8
 671 861 671 861 615 861 c 0,9,10
 558 861 558 861 514.5 904 c 128,-1,11
 471 947 471 947 471 1005 c 0,0,1
498 -450 m 1,12,-1
 545 659 l 1,13,-1
 700 659 l 1,14,-1
 746 -450 l 1,15,-1
 498 -450 l 1,12,-1
EndSplineSet
EndChar

StartChar: cent
Encoding: 162 162 100
Width: 1229
GlyphClass: 2
Flags: W
LayerCount: 2
Fore
SplineSet
118 766 m 256,0,1
 118 922 118 922 177 1043 c 128,-1,2
 236 1164 236 1164 340.5 1244 c 128,-1,3
 445 1324 445 1324 607 1353 c 1,4,-1
 607 1707 l 1,5,-1
 762 1707 l 1,6,-1
 762 1353 l 1,7,8
 928 1334 928 1334 1049 1297 c 1,9,-1
 1049 1118 l 1,10,11
 1013 1139 1013 1139 969 1155 c 128,-1,12
 925 1171 925 1171 876 1184 c 128,-1,13
 827 1197 827 1197 762 1203 c 1,14,-1
 762 337 l 1,15,16
 842 346 842 346 885 358 c 128,-1,17
 928 370 928 370 1015 410 c 0,18,19
 1027 416 1027 416 1049 426 c 1,20,-1
 1049 246 l 1,21,22
 900 197 900 197 762 191 c 1,23,-1
 762 -155 l 1,24,-1
 607 -155 l 1,25,-1
 607 191 l 1,26,27
 458 209 458 209 351.5 287 c 128,-1,28
 245 365 245 365 181.5 487.5 c 128,-1,29
 118 610 118 610 118 766 c 256,0,1
320 765 m 0,30,31
 320 639 320 639 380 515.5 c 128,-1,32
 440 392 440 392 607 345 c 1,33,-1
 607 1195 l 1,34,35
 453 1147 453 1147 386.5 1030 c 128,-1,36
 320 913 320 913 320 765 c 0,30,31
EndSplineSet
EndChar

StartChar: sterling
Encoding: 163 163 101
Width: 1229
GlyphClass: 2
Flags: W
LayerCount: 2
Fore
SplineSet
141 0 m 1,0,-1
 141 171 l 1,1,2
 234 192 234 192 277.5 233.5 c 128,-1,3
 321 275 321 275 343.5 354.5 c 128,-1,4
 366 434 366 434 366 557 c 2,5,-1
 366 768 l 1,6,-1
 141 768 l 1,7,-1
 141 923 l 1,8,-1
 366 923 l 1,9,-1
 366 992 l 2,10,11
 366 1258 366 1258 417 1372 c 128,-1,12
 468 1486 468 1486 562 1542 c 128,-1,13
 656 1598 656 1598 787 1598 c 0,14,15
 911 1598 911 1598 1049 1540 c 1,16,-1
 1049 1360 l 1,17,18
 891 1443 891 1443 765 1443 c 0,19,20
 708 1443 708 1443 655.5 1405.5 c 128,-1,21
 603 1368 603 1368 577.5 1291 c 128,-1,22
 552 1214 552 1214 552 1002 c 2,23,-1
 552 923 l 1,24,-1
 878 923 l 1,25,-1
 878 768 l 1,26,-1
 552 768 l 1,27,-1
 552 651 l 2,28,29
 552 464 552 464 530 366.5 c 128,-1,30
 508 269 508 269 402 171 c 1,31,-1
 1111 171 l 1,32,-1
 1111 0 l 1,33,-1
 141 0 l 1,0,-1
EndSplineSet
EndChar

StartChar: currency
Encoding: 164 164 102
Width: 1229
GlyphClass: 2
Flags: W
LayerCount: 2
Fore
SplineSet
71 266 m 1,0,-1
 255 477 l 1,1,2
 182 579 182 579 166 642.5 c 128,-1,3
 150 706 150 706 150 774 c 0,4,5
 150 841 150 841 166 903.5 c 128,-1,6
 182 966 182 966 255 1068 c 1,7,-1
 71 1280 l 1,8,-1
 186 1381 l 1,9,-1
 371 1170 l 1,10,11
 459 1224 459 1224 514.5 1232.5 c 128,-1,12
 570 1241 570 1241 614 1241 c 256,13,14
 658 1241 658 1241 713.5 1232.5 c 128,-1,15
 769 1224 769 1224 857 1170 c 1,16,-1
 1042 1381 l 1,17,-1
 1157 1280 l 1,18,-1
 973 1068 l 1,19,20
 1046 966 1046 966 1062 903.5 c 128,-1,21
 1078 841 1078 841 1078 774 c 0,22,23
 1078 706 1078 706 1062 642.5 c 128,-1,24
 1046 579 1046 579 973 477 c 1,25,-1
 1157 266 l 1,26,-1
 1042 171 l 1,27,-1
 857 377 l 1,28,29
 766 329 766 329 714.5 319.5 c 128,-1,30
 663 310 663 310 614 310 c 256,31,32
 565 310 565 310 513.5 319.5 c 128,-1,33
 462 329 462 329 371 377 c 1,34,-1
 186 171 l 1,35,-1
 71 266 l 1,0,-1
306 770 m 0,36,37
 306 638 306 638 400.5 551.5 c 128,-1,38
 495 465 495 465 614 465 c 256,39,40
 733 465 733 465 827.5 551.5 c 128,-1,41
 922 638 922 638 922 770 c 0,42,43
 922 856 922 856 880.5 930.5 c 128,-1,44
 839 1005 839 1005 764 1045.5 c 128,-1,45
 689 1086 689 1086 614 1086 c 256,46,47
 539 1086 539 1086 464 1045.5 c 128,-1,48
 389 1005 389 1005 347.5 930.5 c 128,-1,49
 306 856 306 856 306 770 c 0,36,37
EndSplineSet
EndChar

StartChar: yen
Encoding: 165 165 103
Width: 1229
GlyphClass: 2
Flags: W
LayerCount: 2
Fore
SplineSet
52 1552 m 1,0,-1
 257 1552 l 1,1,-1
 624 910 l 1,2,-1
 992 1552 l 1,3,-1
 1177 1552 l 1,4,-1
 708 721 l 1,5,-1
 1026 721 l 1,6,-1
 1026 582 l 1,7,-1
 708 582 l 1,8,-1
 708 388 l 1,9,-1
 1026 388 l 1,10,-1
 1026 248 l 1,11,-1
 708 248 l 1,12,-1
 708 0 l 1,13,-1
 522 0 l 1,14,-1
 522 248 l 1,15,-1
 196 248 l 1,16,-1
 196 388 l 1,17,-1
 522 388 l 1,18,-1
 522 582 l 1,19,-1
 196 582 l 1,20,-1
 196 721 l 1,21,-1
 513 721 l 1,22,-1
 52 1552 l 1,0,-1
EndSplineSet
EndChar

StartChar: brokenbar
Encoding: 166 166 104
Width: 1229
GlyphClass: 2
Flags: W
LayerCount: 2
Fore
SplineSet
533 -47 m 1,0,-1
 533 683 l 1,1,-1
 696 683 l 1,2,-1
 696 -47 l 1,3,-1
 533 -47 l 1,0,-1
533 869 m 1,4,-1
 533 1598 l 1,5,-1
 696 1598 l 1,6,-1
 696 869 l 1,7,-1
 533 869 l 1,4,-1
EndSplineSet
EndChar

StartChar: section
Encoding: 167 167 105
Width: 1229
GlyphClass: 2
Flags: W
LayerCount: 2
Fore
SplineSet
149 -100 m 1,0,1
 251 -155 251 -155 367.5 -186 c 128,-1,2
 484 -217 484 -217 578 -217 c 0,3,4
 727 -217 727 -217 806.5 -156 c 128,-1,5
 886 -95 886 -95 886 -25 c 0,6,7
 886 33 886 33 847 77 c 1,8,9
 807 120 807 120 676 194 c 2,10,-1
 529 277 l 2,11,12
 333 387 333 387 252.5 486 c 128,-1,13
 172 585 172 585 172 694 c 0,14,15
 172 857 172 857 317 990 c 1,16,17
 253 1038 253 1038 220.5 1099.5 c 128,-1,18
 188 1161 188 1161 188 1236 c 0,19,20
 188 1333 188 1333 243.5 1416 c 128,-1,21
 299 1499 299 1499 400 1548.5 c 128,-1,22
 501 1598 501 1598 658 1598 c 0,23,24
 806 1598 806 1598 995 1541 c 1,25,-1
 995 1363 l 1,26,27
 934 1395 934 1395 830.5 1419 c 128,-1,28
 727 1443 727 1443 649 1443 c 0,29,30
 513 1443 513 1443 451 1389 c 128,-1,31
 389 1335 389 1335 389 1269 c 0,32,33
 389 1234 389 1234 406.5 1203 c 128,-1,34
 424 1172 424 1172 459 1144 c 0,35,36
 528 1089 528 1089 585 1055 c 1,37,-1
 648 1020 l 1,38,-1
 797 932 l 2,39,40
 990 818 990 818 1047 732 c 1,41,42
 1103 645 1103 645 1103 541 c 0,43,44
 1103 377 1103 377 959 244 c 1,45,46
 1051 168 1051 168 1069.5 108 c 128,-1,47
 1088 48 1088 48 1088 2 c 0,48,49
 1088 -92 1088 -92 1021.5 -185.5 c 128,-1,50
 955 -279 955 -279 843 -325.5 c 128,-1,51
 731 -372 731 -372 571 -372 c 0,52,53
 351 -372 351 -372 149 -301 c 1,54,-1
 149 -100 l 1,0,1
358 736 m 0,55,56
 358 655 358 655 413 592.5 c 128,-1,57
 468 530 468 530 666 416 c 2,58,-1
 833 319 l 1,59,60
 933 399 933 399 933 505 c 0,61,62
 933 577 933 577 868.5 645.5 c 128,-1,63
 804 714 804 714 720 762 c 2,64,-1
 626 815 l 1,65,-1
 442 920 l 1,66,67
 384 854 384 854 371 813.5 c 128,-1,68
 358 773 358 773 358 736 c 0,55,56
EndSplineSet
EndChar

StartChar: dieresis
Encoding: 168 168 106
Width: 1229
GlyphClass: 2
Flags: W
LayerCount: 2
Fore
SplineSet
273 1412 m 256,0,1
 273 1464 273 1464 310 1500 c 128,-1,2
 347 1536 347 1536 397 1536 c 256,3,4
 447 1536 447 1536 484 1500 c 128,-1,5
 521 1464 521 1464 521 1412 c 256,6,7
 521 1360 521 1360 484.5 1324 c 128,-1,8
 448 1288 448 1288 397 1288 c 256,9,10
 346 1288 346 1288 309.5 1324 c 128,-1,11
 273 1360 273 1360 273 1412 c 256,0,1
707 1412 m 256,12,13
 707 1464 707 1464 744.5 1500 c 128,-1,14
 782 1536 782 1536 832 1536 c 256,15,16
 882 1536 882 1536 919 1500 c 128,-1,17
 956 1464 956 1464 956 1412 c 256,18,19
 956 1360 956 1360 919 1324 c 128,-1,20
 882 1288 882 1288 832 1288 c 0,21,22
 781 1288 781 1288 744 1324 c 128,-1,23
 707 1360 707 1360 707 1412 c 256,12,13
EndSplineSet
EndChar

StartChar: copyright
Encoding: 169 169 107
Width: 1229
GlyphClass: 2
Flags: W
LayerCount: 2
Fore
SplineSet
2 776 m 0,0,1
 2 1008 2 1008 76.5 1194 c 128,-1,2
 151 1380 151 1380 282.5 1489 c 128,-1,3
 414 1598 414 1598 615 1598 c 0,4,5
 809 1598 809 1598 938.5 1496 c 128,-1,6
 1068 1394 1068 1394 1148 1205 c 128,-1,7
 1228 1016 1228 1016 1228 776 c 0,8,9
 1228 535 1228 535 1147.5 345 c 128,-1,10
 1067 155 1067 155 938 54 c 128,-1,11
 809 -47 809 -47 615 -47 c 256,12,13
 421 -47 421 -47 292 54 c 128,-1,14
 163 155 163 155 82.5 345 c 128,-1,15
 2 535 2 535 2 776 c 0,0,1
126 776 m 0,16,17
 126 581 126 581 196 407 c 128,-1,18
 266 233 266 233 377 155.5 c 128,-1,19
 488 78 488 78 615 78 c 0,20,21
 743 78 743 78 855 158.5 c 128,-1,22
 967 239 967 239 1035.5 411 c 128,-1,23
 1104 583 1104 583 1104 776 c 0,24,25
 1104 968 1104 968 1035 1141 c 128,-1,26
 966 1314 966 1314 854 1394 c 128,-1,27
 742 1474 742 1474 615 1474 c 0,28,29
 485 1474 485 1474 371.5 1390.5 c 128,-1,30
 258 1307 258 1307 192 1135.5 c 128,-1,31
 126 964 126 964 126 776 c 0,16,17
227 775 m 0,32,33
 227 921 227 921 284.5 1044 c 128,-1,34
 342 1167 342 1167 435.5 1235 c 128,-1,35
 529 1303 529 1303 665 1303 c 0,36,37
 767 1303 767 1303 894 1271 c 1,38,-1
 894 1112 l 1,39,40
 856 1124 856 1124 811 1132 c 128,-1,41
 766 1140 766 1140 731.5 1144.5 c 128,-1,42
 697 1149 697 1149 674 1149 c 0,43,44
 547 1149 547 1149 472.5 1046 c 128,-1,45
 398 943 398 943 398 773 c 0,46,47
 398 586 398 586 485.5 487 c 128,-1,48
 573 388 573 388 700 388 c 0,49,50
 782 388 782 388 894 433 c 1,51,-1
 894 281 l 1,52,53
 804 248 804 248 680 248 c 0,54,55
 549 248 549 248 447.5 318.5 c 128,-1,56
 346 389 346 389 286.5 508.5 c 128,-1,57
 227 628 227 628 227 775 c 0,32,33
EndSplineSet
EndChar

StartChar: ordfeminine
Encoding: 170 170 108
Width: 1229
GlyphClass: 2
Flags: W
LayerCount: 2
Fore
SplineSet
211 1190 m 0,0,1
 211 1308 211 1308 269.5 1399.5 c 128,-1,2
 328 1491 328 1491 426.5 1544.5 c 128,-1,3
 525 1598 525 1598 674 1598 c 0,4,5
 719 1598 719 1598 803 1593 c 1,6,-1
 839 1590 l 1,7,-1
 979 1590 l 1,8,-1
 979 1114 l 2,9,10
 979 1065 979 1065 984.5 1019.5 c 128,-1,11
 990 974 990 974 1026 908 c 1,12,-1
 871 908 l 1,13,14
 851 966 851 966 840 1060 c 1,15,16
 782 984 782 984 685 938 c 128,-1,17
 588 892 588 892 501 892 c 0,18,19
 389 892 389 892 300 965.5 c 128,-1,20
 211 1039 211 1039 211 1190 c 0,0,1
366 1201 m 0,21,22
 366 1112 366 1112 416 1068 c 128,-1,23
 466 1024 466 1024 534 1024 c 0,24,25
 606 1024 606 1024 693 1076 c 128,-1,26
 780 1128 780 1128 839 1208 c 1,27,-1
 838 1463 l 1,28,29
 760 1474 760 1474 691 1474 c 0,30,31
 555 1474 555 1474 460.5 1402 c 128,-1,32
 366 1330 366 1330 366 1201 c 0,21,22
EndSplineSet
EndChar

StartChar: guillemotleft
Encoding: 171 171 109
Width: 1229
GlyphClass: 2
Flags: W
LayerCount: 2
Fore
SplineSet
153 481 m 1,0,-1
 153 636 l 1,1,-1
 537 1055 l 1,2,-1
 649 946 l 1,3,-1
 338 559 l 1,4,-1
 649 160 l 1,5,-1
 537 62 l 1,6,-1
 153 481 l 1,0,-1
626 481 m 1,7,-1
 626 636 l 1,8,-1
 1010 1055 l 1,9,-1
 1123 946 l 1,10,-1
 811 559 l 1,11,-1
 1123 160 l 1,12,-1
 1010 62 l 1,13,-1
 626 481 l 1,7,-1
EndSplineSet
EndChar

StartChar: logicalnot
Encoding: 172 172 110
Width: 1229
GlyphClass: 2
Flags: W
LayerCount: 2
Fore
SplineSet
71 465 m 1,0,-1
 71 621 l 1,1,-1
 1157 621 l 1,2,-1
 1157 155 l 1,3,-1
 1002 155 l 1,4,-1
 1002 465 l 1,5,-1
 71 465 l 1,0,-1
EndSplineSet
EndChar

StartChar: uni00AD
Encoding: 173 173 111
Width: 1229
GlyphClass: 2
Flags: W
LayerCount: 2
Fore
SplineSet
227 551 m 1,0,-1
 227 706 l 1,1,-1
 1003 706 l 1,2,-1
 1003 551 l 1,3,-1
 227 551 l 1,0,-1
EndSplineSet
EndChar

StartChar: registered
Encoding: 174 174 112
Width: 1229
GlyphClass: 2
Flags: W
LayerCount: 2
Fore
SplineSet
2 776 m 0,0,1
 2 1008 2 1008 76.5 1194 c 128,-1,2
 151 1380 151 1380 282.5 1489 c 128,-1,3
 414 1598 414 1598 615 1598 c 0,4,5
 809 1598 809 1598 938.5 1496 c 128,-1,6
 1068 1394 1068 1394 1148 1205 c 128,-1,7
 1228 1016 1228 1016 1228 776 c 0,8,9
 1228 535 1228 535 1147.5 345 c 128,-1,10
 1067 155 1067 155 938 54 c 128,-1,11
 809 -47 809 -47 615 -47 c 256,12,13
 421 -47 421 -47 292 54 c 128,-1,14
 163 155 163 155 82.5 345 c 128,-1,15
 2 535 2 535 2 776 c 0,0,1
126 776 m 0,16,17
 126 581 126 581 196 407 c 128,-1,18
 266 233 266 233 377 155.5 c 128,-1,19
 488 78 488 78 615 78 c 0,20,21
 743 78 743 78 855 158.5 c 128,-1,22
 967 239 967 239 1035.5 411 c 128,-1,23
 1104 583 1104 583 1104 776 c 0,24,25
 1104 968 1104 968 1035 1141 c 128,-1,26
 966 1314 966 1314 854 1394 c 128,-1,27
 742 1474 742 1474 615 1474 c 0,28,29
 485 1474 485 1474 371.5 1390.5 c 128,-1,30
 258 1307 258 1307 192 1135.5 c 128,-1,31
 126 964 126 964 126 776 c 0,16,17
355 339 m 1,32,-1
 355 1253 l 1,33,-1
 575 1253 l 2,34,35
 751 1253 751 1253 813.5 1188.5 c 128,-1,36
 876 1124 876 1124 876 1042 c 0,37,38
 876 967 876 967 834 890.5 c 128,-1,39
 792 814 792 814 702 763 c 1,40,-1
 938 339 l 1,41,-1
 772 339 l 1,42,-1
 576 718 l 1,43,-1
 494 718 l 1,44,-1
 494 339 l 1,45,-1
 355 339 l 1,32,-1
494 829 m 1,46,-1
 610 829 l 1,47,48
 674 865 674 865 705.5 911.5 c 128,-1,49
 737 958 737 958 737 1016 c 0,50,51
 737 1075 737 1075 695.5 1109 c 128,-1,52
 654 1143 654 1143 539 1143 c 2,53,-1
 494 1143 l 1,54,-1
 494 829 l 1,46,-1
EndSplineSet
EndChar

StartChar: uni02C9
Encoding: 175 175 113
AltUni2: 0002c9.ffffffff.0
Width: 1229
GlyphClass: 2
Flags: W
LayerCount: 2
Fore
SplineSet
335 1288 m 1,0,-1
 335 1412 l 1,1,-1
 894 1412 l 1,2,-1
 894 1288 l 1,3,-1
 335 1288 l 1,0,-1
EndSplineSet
EndChar

StartChar: degree
Encoding: 176 176 114
Width: 1229
GlyphClass: 2
Flags: W
LayerCount: 2
Fore
SplineSet
343 1326 m 0,0,1
 343 1439 343 1439 423.5 1518.5 c 128,-1,2
 504 1598 504 1598 615 1598 c 256,3,4
 726 1598 726 1598 806 1518.5 c 128,-1,5
 886 1439 886 1439 886 1326 c 0,6,7
 886 1216 886 1216 807 1135.5 c 128,-1,8
 728 1055 728 1055 615 1055 c 0,9,10
 501 1055 501 1055 422 1135.5 c 128,-1,11
 343 1216 343 1216 343 1326 c 0,0,1
436 1326 m 0,12,13
 436 1256 436 1256 487.5 1202 c 128,-1,14
 539 1148 539 1148 615 1148 c 0,15,16
 690 1148 690 1148 741.5 1202 c 128,-1,17
 793 1256 793 1256 793 1326 c 0,18,19
 793 1399 793 1399 740.5 1452 c 128,-1,20
 688 1505 688 1505 615 1505 c 0,21,22
 541 1505 541 1505 488.5 1452 c 128,-1,23
 436 1399 436 1399 436 1326 c 0,12,13
EndSplineSet
EndChar

StartChar: plusminus
Encoding: 177 177 115
Width: 1229
GlyphClass: 2
Flags: W
LayerCount: 2
Fore
SplineSet
71 0 m 1,0,-1
 71 155 l 1,1,-1
 1157 155 l 1,2,-1
 1157 0 l 1,3,-1
 71 0 l 1,0,-1
71 776 m 1,4,-1
 71 931 l 1,5,-1
 536 931 l 1,6,-1
 536 1396 l 1,7,-1
 692 1396 l 1,8,-1
 692 931 l 1,9,-1
 1157 931 l 1,10,-1
 1157 776 l 1,11,-1
 692 776 l 1,12,-1
 692 310 l 1,13,-1
 536 310 l 1,14,-1
 536 776 l 1,15,-1
 71 776 l 1,4,-1
EndSplineSet
EndChar

StartChar: uni00B2
Encoding: 178 178 116
Width: 1229
GlyphClass: 2
Flags: W
LayerCount: 2
Fore
SplineSet
238 644 m 1,0,-1
 238 760 l 2,1,2
 238 819 238 819 287 886.5 c 128,-1,3
 336 954 336 954 470 1054 c 2,4,-1
 554 1116 l 1,5,6
 699 1225 699 1225 760 1279 c 0,7,8
 820 1332 820 1332 820 1375 c 0,9,10
 820 1425 820 1425 750.5 1449.5 c 128,-1,11
 681 1474 681 1474 611 1474 c 0,12,13
 558 1474 558 1474 489.5 1467 c 128,-1,14
 421 1460 421 1460 269 1417 c 1,15,-1
 269 1542 l 1,16,17
 446 1598 446 1598 635 1598 c 0,18,19
 813 1598 813 1598 894 1539.5 c 128,-1,20
 975 1481 975 1481 975 1392 c 0,21,22
 975 1326 975 1326 926 1261 c 0,23,24
 877 1195 877 1195 737 1094 c 2,25,-1
 646 1029 l 1,26,-1
 570 975 l 1,27,28
 498 922 498 922 452 875.5 c 128,-1,29
 406 829 406 829 399 776 c 1,30,-1
 990 776 l 1,31,-1
 990 644 l 1,32,-1
 238 644 l 1,0,-1
EndSplineSet
EndChar

StartChar: uni00B3
Encoding: 179 179 117
Width: 1552
GlyphClass: 2
Flags: W
LayerCount: 2
Fore
SplineSet
400 661 m 1,0,-1
 400 804 l 1,1,2
 579 745 579 745 720 745 c 0,3,4
 850 745 850 745 931.5 795.5 c 128,-1,5
 1013 846 1013 846 1013 917 c 0,6,7
 1013 1002 1013 1002 913.5 1044 c 128,-1,8
 814 1086 814 1086 615 1086 c 2,9,-1
 532 1086 l 1,10,-1
 532 1210 l 1,11,-1
 646 1210 l 2,12,13
 800 1210 800 1210 875.5 1258 c 128,-1,14
 951 1306 951 1306 951 1364 c 0,15,16
 951 1412 951 1412 889.5 1443 c 128,-1,17
 828 1474 828 1474 712 1474 c 0,18,19
 580 1474 580 1474 423 1431 c 1,20,-1
 423 1563 l 1,21,22
 581 1598 581 1598 708 1598 c 0,23,24
 920 1598 920 1598 1017 1531 c 0,25,26
 1057 1504 1057 1504 1081.5 1461.5 c 128,-1,27
 1106 1419 1106 1419 1106 1377 c 0,28,29
 1106 1324 1106 1324 1068 1266 c 128,-1,30
 1030 1208 1030 1208 937 1168 c 1,31,32
 1048 1139 1048 1139 1108 1076.5 c 128,-1,33
 1168 1014 1168 1014 1168 926 c 0,34,35
 1168 789 1168 789 1039.5 705 c 128,-1,36
 911 621 911 621 700 621 c 0,37,38
 540 621 540 621 400 661 c 1,0,-1
EndSplineSet
EndChar

StartChar: acute
Encoding: 180 180 118
Width: 1229
GlyphClass: 2
Flags: W
LayerCount: 2
Fore
SplineSet
320 1288 m 1,0,-1
 616 1614 l 1,1,-1
 832 1614 l 1,2,-1
 490 1288 l 1,3,-1
 320 1288 l 1,0,-1
EndSplineSet
EndChar

StartChar: uni00B5
Encoding: 181 181 119
Width: 1229
GlyphClass: 2
Flags: W
LayerCount: 2
Fore
SplineSet
122 -372 m 1,0,-1
 122 1117 l 1,1,-1
 308 1117 l 1,2,-1
 308 468 l 2,3,4
 308 279 308 279 367 205 c 128,-1,5
 426 131 426 131 514 131 c 256,6,7
 602 131 602 131 684.5 196.5 c 128,-1,8
 767 262 767 262 890 458 c 1,9,-1
 890 1117 l 1,10,-1
 1076 1117 l 1,11,-1
 1076 0 l 1,12,-1
 890 0 l 1,13,-1
 890 242 l 1,14,15
 814 100 814 100 715 34.5 c 128,-1,16
 616 -31 616 -31 519 -31 c 0,17,18
 485 -31 485 -31 447.5 -23 c 128,-1,19
 410 -15 410 -15 382 -2.5 c 128,-1,20
 354 10 354 10 308 47 c 1,21,-1
 308 -372 l 1,22,-1
 122 -372 l 1,0,-1
EndSplineSet
EndChar

StartChar: paragraph
Encoding: 182 182 120
Width: 1229
GlyphClass: 2
Flags: W
LayerCount: 2
Fore
SplineSet
87 1124 m 0,0,1
 87 1236 87 1236 143 1339 c 128,-1,2
 199 1442 199 1442 299.5 1497 c 128,-1,3
 400 1552 400 1552 644 1552 c 2,4,-1
 1181 1552 l 1,5,-1
 1181 1396 l 1,6,-1
 1018 1396 l 1,7,-1
 1018 -372 l 1,8,-1
 863 -372 l 1,9,-1
 863 1396 l 1,10,-1
 708 1396 l 1,11,-1
 708 -372 l 1,12,-1
 552 -372 l 1,13,-1
 552 683 l 1,14,15
 317 707 317 707 202 833.5 c 128,-1,16
 87 960 87 960 87 1124 c 0,0,1
EndSplineSet
EndChar

StartChar: uni2219
Encoding: 183 183 121
AltUni2: 002219.ffffffff.0
Width: 1229
GlyphClass: 2
Flags: W
LayerCount: 2
Fore
SplineSet
451 543 m 256,0,1
 451 605 451 605 497.5 655.5 c 128,-1,2
 544 706 544 706 614 706 c 256,3,4
 684 706 684 706 730.5 655.5 c 128,-1,5
 777 605 777 605 777 543 c 256,6,7
 777 481 777 481 730.5 430.5 c 128,-1,8
 684 380 684 380 614 380 c 256,9,10
 544 380 544 380 497.5 430.5 c 128,-1,11
 451 481 451 481 451 543 c 256,0,1
EndSplineSet
EndChar

StartChar: cedilla
Encoding: 184 184 122
Width: 1229
GlyphClass: 2
Flags: W
LayerCount: 2
Fore
SplineSet
444 -318 m 1,0,1
 502 -349 502 -349 563 -349 c 0,2,3
 598 -349 598 -349 626 -328 c 128,-1,4
 654 -307 654 -307 654 -284 c 0,5,6
 654 -216 654 -216 468 -197 c 1,7,-1
 577 0 l 1,8,-1
 685 0 l 1,9,-1
 612 -131 l 1,10,11
 719 -152 719 -152 752 -196.5 c 128,-1,12
 785 -241 785 -241 785 -289 c 0,13,14
 785 -344 785 -344 741 -389.5 c 128,-1,15
 697 -435 697 -435 603 -435 c 0,16,17
 520 -435 520 -435 444 -407 c 1,18,-1
 444 -318 l 1,0,1
EndSplineSet
EndChar

StartChar: uni00B9
Encoding: 185 185 123
Width: 1229
GlyphClass: 2
Flags: W
LayerCount: 2
Fore
SplineSet
269 644 m 1,0,-1
 269 768 l 1,1,-1
 579 768 l 1,2,-1
 579 1431 l 1,3,4
 434 1350 434 1350 269 1309 c 1,5,-1
 269 1435 l 1,6,7
 451 1489 451 1489 583 1575 c 1,8,-1
 719 1575 l 1,9,-1
 719 768 l 1,10,-1
 1021 768 l 1,11,-1
 1021 644 l 1,12,-1
 269 644 l 1,0,-1
EndSplineSet
EndChar

StartChar: ordmasculine
Encoding: 186 186 124
Width: 1229
GlyphClass: 2
Flags: W
LayerCount: 2
Fore
SplineSet
180 1241 m 0,0,1
 180 1385 180 1385 288 1491.5 c 128,-1,2
 396 1598 396 1598 614 1598 c 0,3,4
 833 1598 833 1598 941 1491.5 c 128,-1,5
 1049 1385 1049 1385 1049 1241 c 0,6,7
 1049 1098 1049 1098 941 991 c 128,-1,8
 833 884 833 884 614 884 c 0,9,10
 396 884 396 884 288 991 c 128,-1,11
 180 1098 180 1098 180 1241 c 0,0,1
335 1241 m 256,12,13
 335 1128 335 1128 413 1068 c 128,-1,14
 491 1008 491 1008 614 1008 c 0,15,16
 738 1008 738 1008 816 1068 c 128,-1,17
 894 1128 894 1128 894 1241 c 256,18,19
 894 1354 894 1354 816 1414 c 128,-1,20
 738 1474 738 1474 614 1474 c 0,21,22
 491 1474 491 1474 413 1414 c 128,-1,23
 335 1354 335 1354 335 1241 c 256,12,13
EndSplineSet
EndChar

StartChar: guillemotright
Encoding: 187 187 125
Width: 1229
GlyphClass: 2
Flags: W
LayerCount: 2
Fore
SplineSet
106 171 m 1,0,-1
 418 559 l 1,1,-1
 106 957 l 1,2,-1
 219 1055 l 1,3,-1
 602 636 l 1,4,-1
 602 481 l 1,5,-1
 219 62 l 1,6,-1
 106 171 l 1,0,-1
579 171 m 1,7,-1
 891 559 l 1,8,-1
 579 957 l 1,9,-1
 692 1055 l 1,10,-1
 1076 636 l 1,11,-1
 1076 481 l 1,12,-1
 692 62 l 1,13,-1
 579 171 l 1,7,-1
EndSplineSet
EndChar

StartChar: onequarter
Encoding: 188 188 126
Width: 1229
GlyphClass: 2
Flags: W
LayerCount: 2
Fore
SplineSet
2 -47 m 1,0,-1
 1059 1598 l 1,1,-1
 1228 1598 l 1,2,-1
 166 -47 l 1,3,-1
 2 -47 l 1,0,-1
2 776 m 1,4,-1
 2 900 l 1,5,-1
 235 900 l 1,6,-1
 235 1398 l 1,7,-1
 2 1243 l 1,8,-1
 2 1398 l 1,9,-1
 235 1552 l 1,10,-1
 398 1552 l 1,11,-1
 398 900 l 1,12,-1
 514 900 l 1,13,-1
 514 776 l 1,14,-1
 2 776 l 1,4,-1
514 155 m 1,15,-1
 514 279 l 1,16,-1
 925 768 l 1,17,-1
 1080 768 l 1,18,-1
 1080 279 l 1,19,-1
 1228 279 l 1,20,-1
 1228 155 l 1,21,-1
 1080 155 l 1,22,-1
 1080 0 l 1,23,-1
 925 0 l 1,24,-1
 925 155 l 1,25,-1
 514 155 l 1,15,-1
680 279 m 1,26,-1
 925 279 l 1,27,-1
 925 572 l 1,28,-1
 680 279 l 1,26,-1
EndSplineSet
EndChar

StartChar: onehalf
Encoding: 189 189 127
Width: 1229
GlyphClass: 2
Flags: W
LayerCount: 2
Fore
SplineSet
2 -47 m 1,0,-1
 1060 1598 l 1,1,-1
 1228 1598 l 1,2,-1
 162 -47 l 1,3,-1
 2 -47 l 1,0,-1
2 776 m 1,4,-1
 2 900 l 1,5,-1
 235 900 l 1,6,-1
 235 1398 l 1,7,-1
 2 1243 l 1,8,-1
 2 1398 l 1,9,-1
 235 1552 l 1,10,-1
 398 1552 l 1,11,-1
 398 900 l 1,12,-1
 514 900 l 1,13,-1
 514 776 l 1,14,-1
 2 776 l 1,4,-1
630 0 m 1,15,-1
 630 124 l 2,16,17
 630 154 630 154 679 217.5 c 128,-1,18
 728 281 728 281 848 366 c 2,19,-1
 908 408 l 2,20,21
 994 469 994 469 1010 495 c 0,22,23
 1026 520 1026 520 1026 553 c 0,24,25
 1026 604 1026 604 985 624 c 128,-1,26
 944 644 944 644 894 644 c 0,27,28
 812 644 812 644 700 584 c 1,29,-1
 700 714 l 1,30,31
 834 768 834 768 929 768 c 0,32,33
 1048 768 1048 768 1114.5 709.5 c 128,-1,34
 1181 651 1181 651 1181 561 c 0,35,36
 1181 488 1181 488 1128 430 c 0,37,38
 1075 371 1075 371 984 312 c 1,39,-1
 939 282 l 2,40,41
 884 246 884 246 848 212 c 0,42,43
 830 195 830 195 817.5 178.5 c 128,-1,44
 805 162 805 162 793 124 c 1,45,-1
 1181 124 l 1,46,-1
 1181 0 l 1,47,-1
 630 0 l 1,15,-1
EndSplineSet
EndChar

StartChar: threequarters
Encoding: 190 190 128
Width: 1229
GlyphClass: 2
Flags: W
LayerCount: 2
Fore
SplineSet
2 -47 m 1,0,-1
 1059 1598 l 1,1,-1
 1228 1598 l 1,2,-1
 166 -47 l 1,3,-1
 2 -47 l 1,0,-1
80 809 m 1,4,-1
 80 947 l 1,5,6
 223 900 223 900 296 900 c 0,7,8
 350 900 350 900 389.5 926.5 c 128,-1,9
 429 953 429 953 429 995 c 0,10,11
 429 1041 429 1041 384.5 1071.5 c 128,-1,12
 340 1102 340 1102 199 1102 c 2,13,-1
 126 1102 l 1,14,-1
 126 1226 l 1,15,-1
 207 1226 l 2,16,17
 345 1226 345 1226 375.5 1262.5 c 128,-1,18
 406 1299 406 1299 406 1332 c 256,19,20
 406 1365 406 1365 376.5 1396 c 128,-1,21
 347 1427 347 1427 279 1427 c 0,22,23
 210 1427 210 1427 80 1387 c 1,24,-1
 80 1509 l 1,25,26
 212 1552 212 1552 321 1552 c 0,27,28
 451 1552 451 1552 506 1489 c 128,-1,29
 561 1426 561 1426 561 1357 c 0,30,31
 561 1302 561 1302 532 1256.5 c 128,-1,32
 503 1211 503 1211 444 1175 c 1,33,34
 514 1147 514 1147 549 1104.5 c 128,-1,35
 584 1062 584 1062 584 1004 c 0,36,37
 584 920 584 920 509 848 c 128,-1,38
 434 776 434 776 286 776 c 0,39,40
 183 776 183 776 80 809 c 1,4,-1
514 155 m 1,41,-1
 514 279 l 1,42,-1
 925 768 l 1,43,-1
 1080 768 l 1,44,-1
 1080 279 l 1,45,-1
 1228 279 l 1,46,-1
 1228 155 l 1,47,-1
 1080 155 l 1,48,-1
 1080 0 l 1,49,-1
 925 0 l 1,50,-1
 925 155 l 1,51,-1
 514 155 l 1,41,-1
680 279 m 1,52,-1
 925 279 l 1,53,-1
 925 572 l 1,54,-1
 680 279 l 1,52,-1
EndSplineSet
EndChar

StartChar: questiondown
Encoding: 191 191 129
Width: 1229
GlyphClass: 2
Flags: W
LayerCount: 2
Fore
SplineSet
176 -168 m 0,0,1
 176 -24 176 -24 327 132 c 1,2,-1
 394 200 l 1,3,-1
 471 280 l 1,4,-1
 543 353 l 1,5,6
 582 398 582 398 611.5 454.5 c 128,-1,7
 641 511 641 511 641 613 c 2,8,-1
 641 659 l 1,9,-1
 828 659 l 1,10,-1
 828 624 l 2,11,12
 828 542 828 542 814 486.5 c 128,-1,13
 800 431 800 431 760 371.5 c 128,-1,14
 720 312 720 312 641 228 c 2,15,-1
 579 161 l 2,16,17
 562 143 562 143 527 100 c 2,18,-1
 461 17 l 2,19,20
 378 -87 378 -87 378 -163 c 0,21,22
 378 -233 378 -233 438 -287 c 128,-1,23
 498 -341 498 -341 632 -341 c 0,24,25
 719 -341 719 -341 810 -318 c 128,-1,26
 901 -295 901 -295 1022 -227 c 1,27,-1
 1022 -406 l 1,28,29
 836 -497 836 -497 634 -497 c 0,30,31
 410 -497 410 -497 293 -405 c 128,-1,32
 176 -313 176 -313 176 -168 c 0,0,1
582 997 m 256,33,34
 582 1056 582 1056 624 1098 c 128,-1,35
 666 1140 666 1140 725 1140 c 0,36,37
 783 1140 783 1140 826 1098.5 c 128,-1,38
 869 1057 869 1057 869 997 c 256,39,40
 869 937 869 937 826 895 c 128,-1,41
 783 853 783 853 725 853 c 0,42,43
 666 853 666 853 624 895.5 c 128,-1,44
 582 938 582 938 582 997 c 256,33,34
EndSplineSet
EndChar

StartChar: Aring
Encoding: 197 197 135
Width: 1229
GlyphClass: 2
Flags: W
LayerCount: 2
Fore
SplineSet
33 0 m 1,0,-1
 511 1552 l 1,1,2
 469 1583 469 1583 448 1621.5 c 128,-1,3
 427 1660 427 1660 427 1707 c 0,4,5
 427 1782 427 1782 481.5 1837.5 c 128,-1,6
 536 1893 536 1893 613 1893 c 256,7,8
 690 1893 690 1893 744.5 1838 c 128,-1,9
 799 1783 799 1783 799 1707 c 0,10,11
 799 1661 799 1661 778.5 1622 c 128,-1,12
 758 1583 758 1583 716 1552 c 1,13,-1
 1197 0 l 1,14,-1
 984 0 l 1,15,-1
 878 341 l 1,16,-1
 332 341 l 1,17,-1
 227 0 l 1,18,-1
 33 0 l 1,0,-1
380 496 m 1,19,-1
 833 496 l 1,20,-1
 646 1085 l 1,21,-1
 602 1241 l 1,22,-1
 563 1085 l 1,23,-1
 380 496 l 1,19,-1
520 1707 m 0,24,25
 520 1669 520 1669 547.5 1641.5 c 128,-1,26
 575 1614 575 1614 613 1614 c 256,27,28
 651 1614 651 1614 678.5 1641.5 c 128,-1,29
 706 1669 706 1669 706 1707 c 256,30,31
 706 1745 706 1745 678.5 1772.5 c 128,-1,32
 651 1800 651 1800 613 1800 c 256,33,34
 575 1800 575 1800 547.5 1772 c 128,-1,35
 520 1744 520 1744 520 1707 c 0,24,25
EndSplineSet
EndChar

StartChar: AE
Encoding: 198 198 136
Width: 1229
GlyphClass: 2
Flags: W
LayerCount: 2
Fore
SplineSet
2 0 m 1,0,-1
 638 1552 l 1,1,-1
 1181 1552 l 1,2,-1
 1181 1396 l 1,3,-1
 824 1396 l 1,4,-1
 824 861 l 1,5,-1
 1166 861 l 1,6,-1
 1166 706 l 1,7,-1
 824 706 l 1,8,-1
 824 171 l 1,9,-1
 1181 171 l 1,10,-1
 1181 0 l 1,11,-1
 638 0 l 1,12,-1
 638 372 l 1,13,-1
 324 372 l 1,14,-1
 172 0 l 1,15,-1
 2 0 l 1,0,-1
381 512 m 1,16,-1
 638 512 l 1,17,-1
 638 1134 l 1,18,-1
 381 512 l 1,16,-1
EndSplineSet
EndChar

StartChar: Ccedilla
Encoding: 199 199 137
Width: 1229
GlyphClass: 2
Flags: W
LayerCount: 2
Fore
SplineSet
118 754 m 0,0,1
 118 1157 118 1157 305.5 1378 c 128,-1,2
 493 1599 493 1599 776 1599 c 0,3,4
 914 1599 914 1599 1088 1534 c 1,5,-1
 1088 1350 l 1,6,7
 927 1443 927 1443 768 1443 c 0,8,9
 648 1443 648 1443 548.5 1361 c 128,-1,10
 449 1279 449 1279 388 1120.5 c 128,-1,11
 327 962 327 962 327 776 c 0,12,13
 327 587 327 587 390 427 c 128,-1,14
 453 267 453 267 551 187.5 c 128,-1,15
 649 108 649 108 768 108 c 0,16,17
 926 108 926 108 1088 201 c 1,18,-1
 1088 18 l 1,19,20
 960 -28 960 -28 896 -38.5 c 128,-1,21
 832 -49 832 -49 752 -49 c 1,22,-1
 707 -131 l 1,23,24
 814 -152 814 -152 847 -196.5 c 128,-1,25
 880 -241 880 -241 880 -289 c 0,26,27
 880 -344 880 -344 836 -389.5 c 128,-1,28
 792 -435 792 -435 698 -435 c 0,29,30
 615 -435 615 -435 539 -407 c 1,31,-1
 539 -318 l 1,32,33
 597 -349 597 -349 658 -349 c 0,34,35
 693 -349 693 -349 721 -328 c 128,-1,36
 749 -307 749 -307 749 -284 c 0,37,38
 749 -216 749 -216 563 -197 c 1,39,-1
 651 -37 l 1,40,41
 457 12 457 12 341.5 127.5 c 128,-1,42
 226 243 226 243 172 396.5 c 128,-1,43
 118 550 118 550 118 754 c 0,0,1
EndSplineSet
EndChar

StartChar: Eth
Encoding: 208 208 146
Width: 1229
GlyphClass: 2
Flags: W
LayerCount: 2
Fore
SplineSet
2 714 m 1,0,-1
 2 869 l 1,1,-1
 157 869 l 1,2,-1
 157 1552 l 1,3,-1
 525 1552 l 2,4,5
 798 1552 798 1552 907 1475 c 128,-1,6
 1016 1398 1016 1398 1083 1207.5 c 128,-1,7
 1150 1017 1150 1017 1150 772 c 0,8,9
 1150 540 1150 540 1083 358 c 128,-1,10
 1016 176 1016 176 907 88 c 128,-1,11
 798 0 798 0 567 0 c 2,12,-1
 157 0 l 1,13,-1
 157 714 l 1,14,-1
 2 714 l 1,0,-1
359 171 m 1,15,-1
 494 171 l 2,16,17
 713 171 713 171 789.5 234.5 c 128,-1,18
 866 298 866 298 907.5 437 c 128,-1,19
 949 576 949 576 949 804 c 0,20,21
 949 1027 949 1027 907.5 1153.5 c 128,-1,22
 866 1280 866 1280 793.5 1338 c 128,-1,23
 721 1396 721 1396 510 1396 c 2,24,-1
 359 1396 l 1,25,-1
 359 869 l 1,26,-1
 607 869 l 1,27,-1
 607 714 l 1,28,-1
 359 714 l 1,29,-1
 359 171 l 1,15,-1
EndSplineSet
EndChar

StartChar: multiply
Encoding: 215 215 153
Width: 1229
GlyphClass: 2
Flags: W
LayerCount: 2
Fore
SplineSet
71 112 m 1,0,-1
 506 541 l 1,1,-1
 71 979 l 1,2,-1
 184 1086 l 1,3,-1
 615 656 l 1,4,-1
 1044 1086 l 1,5,-1
 1157 979 l 1,6,-1
 725 541 l 1,7,-1
 1157 112 l 1,8,-1
 1044 0 l 1,9,-1
 615 436 l 1,10,-1
 184 0 l 1,11,-1
 71 112 l 1,0,-1
EndSplineSet
EndChar

StartChar: Oslash
Encoding: 216 216 154
Width: 1229
GlyphClass: 2
Flags: W
LayerCount: 2
Fore
SplineSet
71 -109 m 1,0,-1
 219 167 l 1,1,2
 156 267 156 267 129 356.5 c 128,-1,3
 102 446 102 446 86.5 555 c 128,-1,4
 71 664 71 664 71 785 c 0,5,6
 71 1183 71 1183 218.5 1390.5 c 128,-1,7
 366 1598 366 1598 609 1598 c 0,8,9
 663 1598 663 1598 720.5 1586.5 c 128,-1,10
 778 1575 778 1575 823 1556 c 128,-1,11
 868 1537 868 1537 931 1488 c 1,12,-1
 1024 1660 l 1,13,-1
 1157 1660 l 1,14,-1
 1015 1387 l 1,15,16
 1076 1284 1076 1284 1102 1202 c 128,-1,17
 1128 1120 1128 1120 1142.5 1000.5 c 128,-1,18
 1157 881 1157 881 1157 765 c 0,19,20
 1157 516 1157 516 1090.5 329 c 128,-1,21
 1024 142 1024 142 910.5 47.5 c 128,-1,22
 797 -47 797 -47 604 -47 c 0,23,24
 522 -47 522 -47 460.5 -28 c 128,-1,25
 399 -9 399 -9 306 69 c 1,26,-1
 209 -109 l 1,27,-1
 71 -109 l 1,0,-1
273 789 m 0,28,29
 273 741 273 741 276 642.5 c 128,-1,30
 279 544 279 544 287.5 493 c 128,-1,31
 296 442 296 442 321 360 c 1,32,-1
 846 1329 l 1,33,34
 784 1402 784 1402 726.5 1422.5 c 128,-1,35
 669 1443 669 1443 614 1443 c 0,36,37
 460 1443 460 1443 366.5 1268.5 c 128,-1,38
 273 1094 273 1094 273 789 c 0,28,29
390 225 m 1,39,40
 443 159 443 159 498.5 134 c 128,-1,41
 554 109 554 109 609 109 c 0,42,43
 783 109 783 109 869 293.5 c 128,-1,44
 955 478 955 478 955 777 c 0,45,46
 955 829 955 829 952 915 c 128,-1,47
 949 1001 949 1001 941.5 1055.5 c 128,-1,48
 934 1110 934 1110 911 1195 c 1,49,-1
 390 225 l 1,39,40
EndSplineSet
EndChar

StartChar: Thorn
Encoding: 222 222 160
Width: 1229
GlyphClass: 2
Flags: W
LayerCount: 2
Fore
SplineSet
176 0 m 1,0,-1
 176 1552 l 1,1,-1
 378 1552 l 1,2,-1
 378 1288 l 1,3,-1
 562 1288 l 2,4,5
 800 1288 800 1288 909 1234.5 c 128,-1,6
 1018 1181 1018 1181 1076 1078 c 128,-1,7
 1134 975 1134 975 1134 849 c 0,8,9
 1134 699 1134 699 1056 570 c 128,-1,10
 978 441 978 441 838.5 372 c 128,-1,11
 699 303 699 303 460 303 c 2,12,-1
 378 303 l 1,13,-1
 378 0 l 1,14,-1
 176 0 l 1,0,-1
378 458 m 1,15,-1
 465 458 l 2,16,17
 652 458 652 458 743 506 c 128,-1,18
 834 554 834 554 883 645.5 c 128,-1,19
 932 737 932 737 932 842 c 0,20,21
 932 976 932 976 844.5 1054.5 c 128,-1,22
 757 1133 757 1133 499 1133 c 2,23,-1
 378 1133 l 1,24,-1
 378 458 l 1,15,-1
EndSplineSet
EndChar

StartChar: germandbls
Encoding: 223 223 161
Width: 1229
GlyphClass: 2
Flags: W
LayerCount: 2
Fore
SplineSet
130 0 m 1,0,-1
 130 1122 l 2,1,2
 130 1320 130 1320 187.5 1425.5 c 128,-1,3
 245 1531 245 1531 348.5 1588 c 128,-1,4
 452 1645 452 1645 598 1645 c 0,5,6
 789 1645 789 1645 874.5 1555.5 c 128,-1,7
 960 1466 960 1466 960 1368 c 0,8,9
 960 1306 960 1306 925 1246.5 c 128,-1,10
 890 1187 890 1187 787 1098 c 2,11,-1
 719 1040 l 2,12,13
 699 1023 699 1023 659 984.5 c 128,-1,14
 619 946 619 946 619 906 c 0,15,16
 619 878 619 878 631 858 c 128,-1,17
 643 838 643 838 702 795 c 2,18,-1
 766 748 l 1,19,-1
 892 661 l 2,20,21
 998 589 998 589 1069 504 c 0,22,23
 1139 419 1139 419 1139 304 c 0,24,25
 1139 158 1139 158 1026 63.5 c 128,-1,26
 913 -31 913 -31 737 -31 c 0,27,28
 699 -31 699 -31 646 -27.5 c 128,-1,29
 593 -24 593 -24 563.5 -20 c 128,-1,30
 534 -16 534 -16 479 0 c 1,31,-1
 479 185 l 1,32,33
 539 159 539 159 581 148.5 c 128,-1,34
 623 138 623 138 665 131 c 128,-1,35
 707 124 707 124 735 124 c 0,36,37
 785 124 785 124 840 142 c 128,-1,38
 895 160 895 160 923.5 200.5 c 128,-1,39
 952 241 952 241 952 283 c 0,40,41
 952 345 952 345 904 405 c 0,42,43
 855 465 855 465 741 541 c 2,44,-1
 621 621 l 2,45,46
 529 683 529 683 477 742.5 c 128,-1,47
 425 802 425 802 425 876 c 0,48,49
 425 931 425 931 454.5 984 c 128,-1,50
 484 1037 484 1037 585 1130 c 2,51,-1
 644 1185 l 2,52,53
 692 1229 692 1229 725 1272.5 c 128,-1,54
 758 1316 758 1316 758 1363 c 0,55,56
 758 1428 758 1428 696 1458.5 c 128,-1,57
 634 1489 634 1489 574 1489 c 0,58,59
 505 1489 505 1489 446.5 1455.5 c 128,-1,60
 388 1422 388 1422 352 1353.5 c 128,-1,61
 316 1285 316 1285 316 1122 c 2,62,-1
 316 0 l 1,63,-1
 130 0 l 1,0,-1
EndSplineSet
EndChar

StartChar: ae
Encoding: 230 230 168
Width: 1229
GlyphClass: 2
Flags: W
LayerCount: 2
Fore
SplineSet
64 483 m 0,0,1
 64 683 64 683 119.5 832.5 c 128,-1,2
 175 982 175 982 267.5 1065 c 128,-1,3
 360 1148 360 1148 466 1148 c 0,4,5
 501 1148 501 1148 540.5 1140.5 c 128,-1,6
 580 1133 580 1133 611.5 1121.5 c 128,-1,7
 643 1110 643 1110 691 1077 c 1,8,9
 764 1131 764 1131 804 1139.5 c 128,-1,10
 844 1148 844 1148 875 1148 c 0,11,12
 1002 1148 1002 1148 1084 1034.5 c 128,-1,13
 1166 921 1166 921 1166 585 c 2,14,-1
 1166 535 l 1,15,-1
 762 535 l 1,16,-1
 762 452 l 2,17,18
 762 304 762 304 784.5 243.5 c 128,-1,19
 807 183 807 183 849 153.5 c 128,-1,20
 891 124 891 124 943 124 c 0,21,22
 1044 124 1044 124 1166 203 c 1,23,-1
 1166 33 l 1,24,25
 1025 -31 1025 -31 912 -31 c 0,26,27
 838 -31 838 -31 776 -5.5 c 128,-1,28
 714 20 714 20 668.5 71 c 128,-1,29
 623 122 623 122 592 226 c 1,30,31
 540 96 540 96 472 32.5 c 128,-1,32
 404 -31 404 -31 340 -31 c 0,33,34
 228 -31 228 -31 146 113 c 128,-1,35
 64 257 64 257 64 483 c 0,0,1
250 463 m 0,36,37
 250 345 250 345 283 260 c 256,38,39
 316 175 316 175 367 178 c 0,40,41
 472 185 472 185 576 470 c 1,42,-1
 576 959 l 1,43,44
 552 976 552 976 529 984.5 c 128,-1,45
 506 993 506 993 484 993 c 0,46,47
 367 993 367 993 308.5 828 c 128,-1,48
 250 663 250 663 250 463 c 0,36,37
762 667 m 1,49,-1
 979 667 l 1,50,-1
 979 699 l 2,51,52
 979 875 979 875 952 934 c 128,-1,53
 925 993 925 993 873 993 c 0,54,55
 818 993 818 993 790 919.5 c 128,-1,56
 762 846 762 846 762 699 c 2,57,-1
 762 667 l 1,49,-1
EndSplineSet
EndChar

StartChar: ccedilla
Encoding: 231 231 169
Width: 1229
GlyphClass: 2
Flags: W
LayerCount: 2
Fore
SplineSet
164 547 m 0,0,1
 164 819 164 819 333 983.5 c 128,-1,2
 502 1148 502 1148 729 1148 c 0,3,4
 902 1148 902 1148 1095 1083 c 1,5,-1
 1095 904 l 1,6,7
 900 993 900 993 746 993 c 0,8,9
 644 993 644 993 554 942.5 c 128,-1,10
 464 892 464 892 415 785 c 128,-1,11
 366 678 366 678 366 565 c 0,12,13
 366 414 366 414 460.5 277 c 128,-1,14
 555 140 555 140 757 140 c 0,15,16
 818 140 818 140 877 148.5 c 128,-1,17
 936 157 936 157 1095 211 c 1,18,-1
 1095 32 l 1,19,20
 939 -24 939 -24 757 -34 c 1,21,-1
 702 -131 l 1,22,23
 810 -152 810 -152 843 -196.5 c 128,-1,24
 876 -241 876 -241 876 -289 c 0,25,26
 876 -344 876 -344 831.5 -389.5 c 128,-1,27
 787 -435 787 -435 694 -435 c 0,28,29
 611 -435 611 -435 535 -407 c 1,30,-1
 535 -318 l 1,31,32
 593 -349 593 -349 653 -349 c 0,33,34
 689 -349 689 -349 716.5 -328 c 128,-1,35
 744 -307 744 -307 744 -284 c 0,36,37
 744 -216 744 -216 559 -197 c 1,38,-1
 652 -28 l 1,39,40
 487 0 487 0 380 84 c 128,-1,41
 273 168 273 168 218.5 280.5 c 128,-1,42
 164 393 164 393 164 547 c 0,0,1
EndSplineSet
EndChar

StartChar: eth
Encoding: 240 240 178
Width: 1229
GlyphClass: 2
Flags: W
LayerCount: 2
Fore
SplineSet
87 536 m 0,0,1
 87 703 87 703 153 826 c 128,-1,2
 219 949 219 949 341 1017.5 c 128,-1,3
 463 1086 463 1086 597 1086 c 0,4,5
 653 1086 653 1086 716 1072.5 c 128,-1,6
 779 1059 779 1059 886 991 c 1,7,8
 848 1088 848 1088 789.5 1171 c 128,-1,9
 731 1254 731 1254 610 1344 c 1,10,-1
 385 1140 l 1,11,-1
 282 1257 l 1,12,-1
 463 1418 l 1,13,14
 335 1458 335 1458 197 1458 c 2,15,-1
 172 1458 l 1,16,-1
 172 1614 l 1,17,-1
 206 1614 l 2,18,19
 325 1614 325 1614 417 1603 c 128,-1,20
 509 1592 509 1592 610 1549 c 1,21,-1
 825 1744 l 1,22,-1
 928 1628 l 1,23,-1
 750 1468 l 1,24,25
 900 1347 900 1347 979.5 1220.5 c 128,-1,26
 1059 1094 1059 1094 1100.5 932.5 c 128,-1,27
 1142 771 1142 771 1142 613 c 0,28,29
 1142 319 1142 319 1004 144 c 128,-1,30
 866 -31 866 -31 612 -31 c 0,31,32
 375 -31 375 -31 231 127.5 c 128,-1,33
 87 286 87 286 87 536 c 0,0,1
281 528 m 0,34,35
 281 351 281 351 374 237.5 c 128,-1,36
 467 124 467 124 615 124 c 0,37,38
 762 124 762 124 855 237.5 c 128,-1,39
 948 351 948 351 948 528 c 0,40,41
 948 704 948 704 855 817.5 c 128,-1,42
 762 931 762 931 615 931 c 0,43,44
 467 931 467 931 374 817.5 c 128,-1,45
 281 704 281 704 281 528 c 0,34,35
EndSplineSet
EndChar

StartChar: divide
Encoding: 247 247 185
Width: 1229
GlyphClass: 2
Flags: W
LayerCount: 2
Fore
SplineSet
71 465 m 1,0,-1
 71 621 l 1,1,-1
 1157 621 l 1,2,-1
 1157 465 l 1,3,-1
 71 465 l 1,0,-1
471 167 m 256,4,5
 471 225 471 225 514 267.5 c 128,-1,6
 557 310 557 310 614 310 c 256,7,8
 671 310 671 310 714.5 267.5 c 128,-1,9
 758 225 758 225 758 167 c 256,10,11
 758 109 758 109 714.5 66 c 128,-1,12
 671 23 671 23 614 23 c 256,13,14
 557 23 557 23 514 66 c 128,-1,15
 471 109 471 109 471 167 c 256,4,5
471 919 m 0,16,17
 471 977 471 977 514 1020 c 128,-1,18
 557 1063 557 1063 614 1063 c 256,19,20
 671 1063 671 1063 714.5 1020 c 128,-1,21
 758 977 758 977 758 919 c 0,22,23
 758 862 758 862 714.5 819 c 128,-1,24
 671 776 671 776 614 776 c 256,25,26
 557 776 557 776 514 819 c 128,-1,27
 471 862 471 862 471 919 c 0,16,17
EndSplineSet
EndChar

StartChar: oslash
Encoding: 248 248 186
Width: 1229
GlyphClass: 2
Flags: W
LayerCount: 2
Fore
SplineSet
87 -93 m 1,0,-1
 237 128 l 1,1,2
 87 317 87 317 87 564 c 0,3,4
 87 807 87 807 222 977.5 c 128,-1,5
 357 1148 357 1148 613 1148 c 0,6,7
 663 1148 663 1148 713 1141 c 128,-1,8
 763 1134 763 1134 802.5 1121 c 128,-1,9
 842 1108 842 1108 898 1075 c 1,10,-1
 992 1210 l 1,11,-1
 1142 1210 l 1,12,-1
 993 995 l 1,13,14
 1142 802 1142 802 1142 559 c 0,15,16
 1142 322 1142 322 1010 145.5 c 128,-1,17
 878 -31 878 -31 614 -31 c 0,18,19
 551 -31 551 -31 490.5 -20.5 c 128,-1,20
 430 -10 430 -10 332 44 c 1,21,-1
 236 -93 l 1,22,-1
 87 -93 l 1,0,-1
289 564 m 0,23,24
 289 414 289 414 341 280 c 1,25,-1
 805 943 l 1,26,27
 716 993 716 993 615 993 c 0,28,29
 456 993 456 993 372.5 877.5 c 128,-1,30
 289 762 289 762 289 564 c 0,23,24
424 177 m 1,31,32
 520 124 520 124 605 124 c 0,33,34
 788 124 788 124 864 246.5 c 128,-1,35
 940 369 940 369 940 554 c 0,36,37
 940 714 940 714 889 845 c 1,38,-1
 424 177 l 1,31,32
EndSplineSet
EndChar

StartChar: thorn
Encoding: 254 254 192
Width: 1229
GlyphClass: 2
Flags: W
LayerCount: 2
Fore
SplineSet
137 -434 m 1,0,-1
 137 1552 l 1,1,-1
 323 1552 l 1,2,-1
 323 866 l 1,3,4
 409 1006 409 1006 528 1077 c 128,-1,5
 647 1148 647 1148 747 1148 c 0,6,7
 887 1148 887 1148 999 1027 c 128,-1,8
 1111 906 1111 906 1111 660 c 0,9,10
 1111 370 1111 370 945 172 c 0,11,12
 867 80 867 80 770 32 c 128,-1,13
 673 -16 673 -16 531 -16 c 0,14,15
 479 -16 479 -16 371 -5 c 0,16,17
 355 -3 355 -3 323 0 c 1,18,-1
 323 -434 l 1,19,-1
 137 -434 l 1,0,-1
323 166 m 1,20,21
 424 140 424 140 509 140 c 0,22,23
 678 140 678 140 793.5 272.5 c 128,-1,24
 909 405 909 405 909 635 c 0,25,26
 909 802 909 802 846 886 c 128,-1,27
 783 970 783 970 703 970 c 0,28,29
 616 970 616 970 511.5 882 c 128,-1,30
 407 794 407 794 323 645 c 1,31,-1
 323 166 l 1,20,21
EndSplineSet
EndChar

StartChar: dotlessi
Encoding: 305 305 194
Width: 1229
GlyphClass: 2
Flags: W
LayerCount: 2
Fore
SplineSet
157 962 m 1,0,-1
 157 1117 l 1,1,-1
 653 1117 l 1,2,-1
 653 155 l 1,3,-1
 964 155 l 1,4,-1
 964 0 l 1,5,-1
 467 0 l 1,6,-1
 467 962 l 1,7,-1
 157 962 l 1,0,-1
EndSplineSet
EndChar

StartChar: OE
Encoding: 338 338 195
Width: 1229
GlyphClass: 2
Flags: W
LayerCount: 2
Fore
SplineSet
36 795 m 0,0,1
 36 1047 36 1047 97.5 1233.5 c 128,-1,2
 159 1420 159 1420 262 1501.5 c 128,-1,3
 365 1583 365 1583 479 1583 c 0,4,5
 512 1583 512 1583 547 1573 c 128,-1,6
 582 1563 582 1563 633 1513 c 1,7,-1
 633 1552 l 1,8,-1
 1169 1552 l 1,9,-1
 1169 1396 l 1,10,-1
 820 1396 l 1,11,-1
 820 861 l 1,12,-1
 1153 861 l 1,13,-1
 1153 706 l 1,14,-1
 820 706 l 1,15,-1
 820 171 l 1,16,-1
 1184 171 l 1,17,-1
 1184 0 l 1,18,-1
 633 0 l 1,19,-1
 633 39 l 1,20,21
 565 -21 565 -21 529.5 -26.5 c 128,-1,22
 494 -32 494 -32 476 -32 c 0,23,24
 361 -32 361 -32 254.5 62 c 128,-1,25
 148 156 148 156 92 355.5 c 128,-1,26
 36 555 36 555 36 795 c 0,0,1
238 780 m 0,27,28
 238 532 238 532 293.5 328 c 128,-1,29
 349 124 349 124 490 124 c 0,30,31
 560 124 560 124 596.5 194.5 c 128,-1,32
 633 265 633 265 633 521 c 2,33,-1
 633 1022 l 2,34,35
 633 1287 633 1287 595.5 1357.5 c 128,-1,36
 558 1428 558 1428 486 1428 c 0,37,38
 355 1428 355 1428 296.5 1243.5 c 128,-1,39
 238 1059 238 1059 238 780 c 0,27,28
EndSplineSet
EndChar

StartChar: oe
Encoding: 339 339 196
Width: 1229
GlyphClass: 2
Flags: W
LayerCount: 2
Fore
SplineSet
67 570 m 0,0,1
 67 787 67 787 143.5 967.5 c 128,-1,2
 220 1148 220 1148 402 1148 c 0,3,4
 482 1148 482 1148 541 1106.5 c 128,-1,5
 600 1065 600 1065 639 982 c 1,6,7
 683 1065 683 1065 742 1106.5 c 128,-1,8
 801 1148 801 1148 875 1148 c 0,9,10
 994 1148 994 1148 1077.5 1035.5 c 128,-1,11
 1161 923 1161 923 1161 597 c 2,12,-1
 1161 535 l 1,13,-1
 757 535 l 1,14,-1
 757 474 l 2,15,16
 757 296 757 296 781.5 237.5 c 128,-1,17
 806 179 806 179 848.5 151.5 c 128,-1,18
 891 124 891 124 941 124 c 0,19,20
 1044 124 1044 124 1161 202 c 1,21,-1
 1161 29 l 1,22,23
 1020 -31 1020 -31 910 -31 c 0,24,25
 825 -31 825 -31 754.5 1.5 c 128,-1,26
 684 34 684 34 625 135 c 1,27,28
 566 24 566 24 500.5 -3.5 c 128,-1,29
 435 -31 435 -31 381 -31 c 0,30,31
 293 -31 293 -31 222 32 c 128,-1,32
 151 95 151 95 109 240.5 c 128,-1,33
 67 386 67 386 67 570 c 0,0,1
245 544 m 0,34,35
 245 378 245 378 284.5 251 c 128,-1,36
 324 124 324 124 416 124 c 0,37,38
 483 124 483 124 527 210 c 128,-1,39
 571 296 571 296 571 493 c 2,40,-1
 571 595 l 2,41,42
 571 722 571 722 564.5 773 c 128,-1,43
 558 824 558 824 540 875 c 0,44,45
 522 925 522 925 487.5 960.5 c 128,-1,46
 453 996 453 996 412 993 c 0,47,48
 327 988 327 988 286 864 c 128,-1,49
 245 740 245 740 245 544 c 0,34,35
757 667 m 1,50,-1
 975 667 l 1,51,-1
 975 700 l 2,52,53
 975 885 975 885 945 939 c 128,-1,54
 915 993 915 993 868 993 c 0,55,56
 820 993 820 993 788.5 923.5 c 128,-1,57
 757 854 757 854 757 701 c 2,58,-1
 757 667 l 1,50,-1
EndSplineSet
EndChar

StartChar: circumflex
Encoding: 710 710 198
Width: 1229
GlyphClass: 2
Flags: W
LayerCount: 2
Fore
SplineSet
320 1288 m 1,0,-1
 553 1614 l 1,1,-1
 677 1614 l 1,2,-1
 910 1288 l 1,3,-1
 754 1288 l 1,4,-1
 615 1456 l 1,5,-1
 475 1288 l 1,6,-1
 320 1288 l 1,0,-1
EndSplineSet
EndChar

StartChar: ring
Encoding: 730 730 199
Width: 1229
GlyphClass: 2
Flags: W
LayerCount: 2
Fore
SplineSet
428 1474 m 0,0,1
 428 1549 428 1549 482.5 1604.5 c 128,-1,2
 537 1660 537 1660 614 1660 c 0,3,4
 692 1660 692 1660 746 1604.5 c 128,-1,5
 800 1549 800 1549 800 1474 c 0,6,7
 800 1400 800 1400 746 1344 c 128,-1,8
 692 1288 692 1288 614 1288 c 256,9,10
 536 1288 536 1288 482 1344 c 128,-1,11
 428 1400 428 1400 428 1474 c 0,0,1
521 1474 m 256,12,13
 521 1436 521 1436 548.5 1408.5 c 128,-1,14
 576 1381 576 1381 614 1381 c 0,15,16
 653 1381 653 1381 680 1408.5 c 128,-1,17
 707 1436 707 1436 707 1474 c 256,18,19
 707 1512 707 1512 680 1539.5 c 128,-1,20
 653 1567 653 1567 614 1567 c 0,21,22
 576 1567 576 1567 548.5 1539.5 c 128,-1,23
 521 1512 521 1512 521 1474 c 256,12,13
EndSplineSet
EndChar

StartChar: tilde
Encoding: 732 732 200
Width: 1229
GlyphClass: 2
Flags: W
LayerCount: 2
Fore
SplineSet
289 1288 m 1,0,1
 289 1420 289 1420 340.5 1482 c 128,-1,2
 392 1544 392 1544 470 1544 c 0,3,4
 532 1544 532 1544 596 1504 c 1,5,-1
 638 1479 l 1,6,7
 721 1427 721 1427 754 1427 c 0,8,9
 814 1427 814 1427 814 1544 c 1,10,-1
 941 1544 l 1,11,12
 935 1442 935 1442 914 1395 c 128,-1,13
 893 1348 893 1348 849.5 1317.5 c 128,-1,14
 806 1287 806 1287 754 1287 c 0,15,16
 689 1287 689 1287 613 1336 c 2,17,-1
 569 1364 l 1,18,-1
 545 1381 l 2,19,20
 511 1404 511 1404 480 1404 c 0,21,22
 458 1404 458 1404 436 1381 c 128,-1,23
 414 1358 414 1358 414 1288 c 1,24,-1
 289 1288 l 1,0,1
EndSplineSet
EndChar

StartChar: uni2010
Encoding: 8208 8208 212
Width: 1229
GlyphClass: 2
Flags: W
LayerCount: 2
Fore
SplineSet
227 551 m 1,0,-1
 227 706 l 1,1,-1
 1003 706 l 1,2,-1
 1003 551 l 1,3,-1
 227 551 l 1,0,-1
EndSplineSet
EndChar

StartChar: uni2011
Encoding: 8209 8209 213
Width: 1229
GlyphClass: 2
Flags: W
LayerCount: 2
Fore
SplineSet
227 551 m 1,0,-1
 227 706 l 1,1,-1
 1003 706 l 1,2,-1
 1003 551 l 1,3,-1
 227 551 l 1,0,-1
EndSplineSet
EndChar

StartChar: figuredash
Encoding: 8210 8210 214
Width: 1229
GlyphClass: 2
Flags: W
LayerCount: 2
Fore
SplineSet
227 551 m 1,0,-1
 227 706 l 1,1,-1
 1003 706 l 1,2,-1
 1003 551 l 1,3,-1
 227 551 l 1,0,-1
EndSplineSet
EndChar

StartChar: endash
Encoding: 8211 8211 215
Width: 1229
GlyphClass: 2
Flags: W
LayerCount: 2
Fore
SplineSet
71 528 m 1,0,-1
 71 683 l 1,1,-1
 1157 683 l 1,2,-1
 1157 528 l 1,3,-1
 71 528 l 1,0,-1
EndSplineSet
EndChar

StartChar: emdash
Encoding: 8212 8212 216
Width: 1229
GlyphClass: 2
Flags: W
LayerCount: 2
Fore
SplineSet
71 528 m 1,0,-1
 71 652 l 1,1,-1
 1157 652 l 1,2,-1
 1157 528 l 1,3,-1
 71 528 l 1,0,-1
EndSplineSet
EndChar

StartChar: quoteleft
Encoding: 8216 8216 217
Width: 1229
GlyphClass: 2
Flags: W
LayerCount: 2
Fore
SplineSet
424 1186 m 0,0,1
 424 1297 424 1297 472 1394 c 128,-1,2
 520 1491 520 1491 602.5 1560 c 128,-1,3
 685 1629 685 1629 804 1645 c 1,4,-1
 804 1520 l 1,5,6
 732 1501 732 1501 694.5 1466 c 128,-1,7
 657 1431 657 1431 634.5 1376.5 c 128,-1,8
 612 1322 612 1322 612 1244 c 1,9,10
 705 1244 705 1244 749 1191.5 c 128,-1,11
 793 1139 793 1139 793 1080 c 0,12,13
 793 1010 793 1010 744 962.5 c 128,-1,14
 695 915 695 915 630 915 c 0,15,16
 546 915 546 915 485 987.5 c 128,-1,17
 424 1060 424 1060 424 1186 c 0,0,1
EndSplineSet
EndChar

StartChar: quoteright
Encoding: 8217 8217 218
Width: 1229
GlyphClass: 2
Flags: W
LayerCount: 2
Fore
SplineSet
424 915 m 1,0,-1
 424 1040 l 1,1,2
 496 1059 496 1059 533.5 1094 c 128,-1,3
 571 1129 571 1129 593.5 1183.5 c 128,-1,4
 616 1238 616 1238 616 1316 c 1,5,6
 523 1316 523 1316 479 1368.5 c 128,-1,7
 435 1421 435 1421 435 1480 c 0,8,9
 435 1550 435 1550 484 1597.5 c 128,-1,10
 533 1645 533 1645 598 1645 c 0,11,12
 682 1645 682 1645 743 1572.5 c 128,-1,13
 804 1500 804 1500 804 1374 c 0,14,15
 804 1263 804 1263 756 1166 c 128,-1,16
 708 1069 708 1069 625.5 1000 c 128,-1,17
 543 931 543 931 424 915 c 1,0,-1
EndSplineSet
EndChar

StartChar: quotesinglbase
Encoding: 8218 8218 219
Width: 1229
GlyphClass: 2
Flags: W
LayerCount: 2
Fore
SplineSet
424 -310 m 1,0,1
 496 -291 496 -291 533.5 -255.5 c 128,-1,2
 571 -220 571 -220 590.5 -173 c 128,-1,3
 610 -126 610 -126 616 -34 c 1,4,5
 523 -34 523 -34 479 18.5 c 128,-1,6
 435 71 435 71 435 131 c 0,7,8
 435 200 435 200 484 247.5 c 128,-1,9
 533 295 533 295 598 295 c 0,10,11
 682 295 682 295 743 222.5 c 128,-1,12
 804 150 804 150 804 24 c 0,13,14
 804 -86 804 -86 756 -183.5 c 128,-1,15
 708 -281 708 -281 625.5 -350 c 128,-1,16
 543 -419 543 -419 424 -434 c 1,17,-1
 424 -310 l 1,0,1
EndSplineSet
EndChar

StartChar: quotedblleft
Encoding: 8220 8220 220
Width: 1229
GlyphClass: 2
Flags: W
LayerCount: 2
Fore
SplineSet
180 1186 m 0,0,1
 180 1297 180 1297 228 1394 c 128,-1,2
 276 1491 276 1491 358.5 1560 c 128,-1,3
 441 1629 441 1629 560 1645 c 1,4,-1
 560 1520 l 1,5,6
 488 1501 488 1501 450.5 1466 c 128,-1,7
 413 1431 413 1431 390.5 1376.5 c 128,-1,8
 368 1322 368 1322 368 1244 c 1,9,10
 461 1244 461 1244 505 1191.5 c 128,-1,11
 549 1139 549 1139 549 1080 c 0,12,13
 549 1010 549 1010 500 962.5 c 128,-1,14
 451 915 451 915 386 915 c 0,15,16
 302 915 302 915 241 987.5 c 128,-1,17
 180 1060 180 1060 180 1186 c 0,0,1
669 1186 m 0,18,19
 669 1297 669 1297 717 1394 c 128,-1,20
 765 1491 765 1491 847.5 1560 c 128,-1,21
 930 1629 930 1629 1049 1645 c 1,22,-1
 1049 1520 l 1,23,24
 977 1501 977 1501 939.5 1466 c 128,-1,25
 902 1431 902 1431 879.5 1376.5 c 128,-1,26
 857 1322 857 1322 857 1244 c 1,27,28
 949 1244 949 1244 993.5 1191.5 c 128,-1,29
 1038 1139 1038 1139 1038 1080 c 0,30,31
 1038 1010 1038 1010 989 962.5 c 128,-1,32
 940 915 940 915 875 915 c 0,33,34
 790 915 790 915 729.5 987.5 c 128,-1,35
 669 1060 669 1060 669 1186 c 0,18,19
EndSplineSet
EndChar

StartChar: quotedblright
Encoding: 8221 8221 221
Width: 1229
GlyphClass: 2
Flags: W
LayerCount: 2
Fore
SplineSet
180 915 m 1,0,-1
 180 1040 l 1,1,2
 252 1059 252 1059 289.5 1094 c 128,-1,3
 327 1129 327 1129 349.5 1183.5 c 128,-1,4
 372 1238 372 1238 372 1316 c 1,5,6
 279 1316 279 1316 235 1368.5 c 128,-1,7
 191 1421 191 1421 191 1480 c 0,8,9
 191 1550 191 1550 240 1597.5 c 128,-1,10
 289 1645 289 1645 354 1645 c 0,11,12
 438 1645 438 1645 499 1572.5 c 128,-1,13
 560 1500 560 1500 560 1374 c 0,14,15
 560 1263 560 1263 512 1166 c 128,-1,16
 464 1069 464 1069 381.5 1000 c 128,-1,17
 299 931 299 931 180 915 c 1,0,-1
669 915 m 1,18,-1
 669 1040 l 1,19,20
 740 1059 740 1059 778 1094 c 128,-1,21
 816 1129 816 1129 838.5 1183.5 c 128,-1,22
 861 1238 861 1238 861 1316 c 1,23,24
 768 1316 768 1316 724 1368.5 c 128,-1,25
 680 1421 680 1421 680 1480 c 0,26,27
 680 1550 680 1550 728.5 1597.5 c 128,-1,28
 777 1645 777 1645 842 1645 c 0,29,30
 927 1645 927 1645 988 1572.5 c 128,-1,31
 1049 1500 1049 1500 1049 1374 c 0,32,33
 1049 1263 1049 1263 1001 1166 c 128,-1,34
 953 1069 953 1069 870.5 1000 c 128,-1,35
 788 931 788 931 669 915 c 1,18,-1
EndSplineSet
EndChar

StartChar: quotedblbase
Encoding: 8222 8222 222
Width: 1229
GlyphClass: 2
Flags: W
LayerCount: 2
Fore
SplineSet
180 -310 m 1,0,1
 252 -291 252 -291 289.5 -255.5 c 128,-1,2
 327 -220 327 -220 346.5 -173 c 128,-1,3
 366 -126 366 -126 372 -34 c 1,4,5
 279 -34 279 -34 235 18.5 c 128,-1,6
 191 71 191 71 191 131 c 0,7,8
 191 200 191 200 240 247.5 c 128,-1,9
 289 295 289 295 354 295 c 0,10,11
 438 295 438 295 499 222.5 c 128,-1,12
 560 150 560 150 560 24 c 0,13,14
 560 -86 560 -86 512 -183.5 c 128,-1,15
 464 -281 464 -281 381.5 -350 c 128,-1,16
 299 -419 299 -419 180 -434 c 1,17,-1
 180 -310 l 1,0,1
669 -310 m 1,18,19
 740 -291 740 -291 778 -255.5 c 128,-1,20
 816 -220 816 -220 835.5 -173 c 128,-1,21
 855 -126 855 -126 861 -34 c 1,22,23
 768 -34 768 -34 724 18.5 c 128,-1,24
 680 71 680 71 680 131 c 0,25,26
 680 200 680 200 728.5 247.5 c 128,-1,27
 777 295 777 295 842 295 c 0,28,29
 927 295 927 295 988 222.5 c 128,-1,30
 1049 150 1049 150 1049 24 c 0,31,32
 1049 -86 1049 -86 1001 -183.5 c 128,-1,33
 953 -281 953 -281 870.5 -350 c 128,-1,34
 788 -419 788 -419 669 -434 c 1,35,-1
 669 -310 l 1,18,19
EndSplineSet
EndChar

StartChar: bullet
Encoding: 8226 8226 223
Width: 1229
GlyphClass: 2
Flags: W
LayerCount: 2
Fore
SplineSet
188 768 m 0,0,1
 188 882 188 882 245 981.5 c 128,-1,2
 302 1081 302 1081 402 1138 c 128,-1,3
 502 1195 502 1195 615 1195 c 0,4,5
 727 1195 727 1195 827 1138 c 128,-1,6
 927 1081 927 1081 984 981.5 c 128,-1,7
 1041 882 1041 882 1041 768 c 0,8,9
 1041 651 1041 651 982 551 c 128,-1,10
 923 451 923 451 825 396 c 128,-1,11
 727 341 727 341 615 341 c 0,12,13
 502 341 502 341 404 396 c 128,-1,14
 306 451 306 451 247 551 c 128,-1,15
 188 651 188 651 188 768 c 0,0,1
EndSplineSet
EndChar

StartChar: ellipsis
Encoding: 8230 8230 224
Width: 1229
GlyphClass: 2
Flags: W
LayerCount: 2
Fore
SplineSet
61 97 m 256,0,1
 61 155 61 155 104.5 197.5 c 128,-1,2
 148 240 148 240 205 240 c 0,3,4
 261 240 261 240 304.5 197.5 c 128,-1,5
 348 155 348 155 348 97 c 256,6,7
 348 39 348 39 304.5 -4 c 128,-1,8
 261 -47 261 -47 205 -47 c 0,9,10
 148 -47 148 -47 104.5 -4 c 128,-1,11
 61 39 61 39 61 97 c 256,0,1
471 97 m 256,12,13
 471 155 471 155 514 197.5 c 128,-1,14
 557 240 557 240 614 240 c 256,15,16
 671 240 671 240 714.5 197.5 c 128,-1,17
 758 155 758 155 758 97 c 256,18,19
 758 39 758 39 714.5 -4 c 128,-1,20
 671 -47 671 -47 614 -47 c 256,21,22
 557 -47 557 -47 514 -4 c 128,-1,23
 471 39 471 39 471 97 c 256,12,13
880 97 m 256,24,25
 880 155 880 155 923.5 197.5 c 128,-1,26
 967 240 967 240 1024 240 c 256,27,28
 1081 240 1081 240 1124 197.5 c 128,-1,29
 1167 155 1167 155 1167 97 c 256,30,31
 1167 39 1167 39 1124 -4 c 128,-1,32
 1081 -47 1081 -47 1024 -47 c 256,33,34
 967 -47 967 -47 923.5 -4 c 128,-1,35
 880 39 880 39 880 97 c 256,24,25
EndSplineSet
EndChar

StartChar: guilsinglleft
Encoding: 8249 8249 226
Width: 1229
GlyphClass: 2
Flags: W
LayerCount: 2
Fore
SplineSet
331 484 m 1,0,-1
 331 644 l 1,1,-1
 832 1117 l 1,2,-1
 944 999 l 1,3,-1
 515 561 l 1,4,-1
 944 115 l 1,5,-1
 832 0 l 1,6,-1
 331 484 l 1,0,-1
EndSplineSet
EndChar

StartChar: guilsinglright
Encoding: 8250 8250 227
Width: 1229
GlyphClass: 2
Flags: W
LayerCount: 2
Fore
SplineSet
285 118 m 1,0,-1
 714 556 l 1,1,-1
 285 1002 l 1,2,-1
 397 1117 l 1,3,-1
 898 633 l 1,4,-1
 898 473 l 1,5,-1
 397 0 l 1,6,-1
 285 118 l 1,0,-1
EndSplineSet
EndChar

StartChar: trademark
Encoding: 8482 8482 229
Width: 1229
GlyphClass: 2
Flags: W
LayerCount: 2
Fore
SplineSet
2 1439 m 1,0,-1
 2 1552 l 1,1,-1
 577 1552 l 1,2,-1
 577 1439 l 1,3,-1
 353 1439 l 1,4,-1
 353 776 l 1,5,-1
 225 776 l 1,6,-1
 225 1439 l 1,7,-1
 2 1439 l 1,0,-1
638 776 m 1,8,-1
 638 1552 l 1,9,-1
 763 1552 l 1,10,-1
 933 1088 l 1,11,-1
 1105 1552 l 1,12,-1
 1228 1552 l 1,13,-1
 1228 776 l 1,14,-1
 1107 776 l 1,15,-1
 1107 1253 l 1,16,-1
 986 925 l 1,17,-1
 867 925 l 1,18,-1
 744 1254 l 1,19,-1
 744 776 l 1,20,-1
 638 776 l 1,8,-1
EndSplineSet
EndChar

StartChar: uniE000
Encoding: 57344 57344 230
Width: 1115
GlyphClass: 2
Flags: W
LayerCount: 2
Fore
SplineSet
0 1115 m 1,0,-1
 1115 1115 l 1,1,-1
 1115 0 l 1,2,-1
 0 0 l 1,3,-1
 0 1115 l 1,0,-1
EndSplineSet
EndChar

StartChar: uniFB01
Encoding: 61441 61441 231
AltUni2: 00fb01.ffffffff.0
Width: 1229
GlyphClass: 2
Flags: W
LayerCount: 2
Fore
SplineSet
25 869 m 1,0,-1
 25 1024 l 1,1,-1
 273 1024 l 1,2,-1
 273 1076 l 2,3,4
 273 1297 273 1297 323 1403 c 128,-1,5
 373 1509 373 1509 477.5 1577 c 128,-1,6
 582 1645 582 1645 754 1645 c 0,7,8
 884 1645 884 1645 1018 1618 c 1,9,-1
 1018 1441 l 1,10,11
 873 1489 873 1489 761 1489 c 0,12,13
 672 1489 672 1489 604 1456 c 128,-1,14
 536 1423 536 1423 497.5 1348.5 c 128,-1,15
 459 1274 459 1274 459 1096 c 2,16,-1
 459 1024 l 1,17,-1
 1111 1024 l 1,18,-1
 1111 0 l 1,19,-1
 925 0 l 1,20,-1
 925 869 l 1,21,-1
 459 869 l 1,22,-1
 459 0 l 1,23,-1
 273 0 l 1,24,-1
 273 869 l 1,25,-1
 25 869 l 1,0,-1
EndSplineSet
EndChar

StartChar: uniFB02
Encoding: 61442 61442 232
AltUni2: 00fb02.ffffffff.0
Width: 1229
GlyphClass: 2
Flags: W
LayerCount: 2
Fore
SplineSet
2 869 m 1,0,-1
 2 1024 l 1,1,-1
 219 1024 l 1,2,-1
 219 1076 l 2,3,4
 219 1297 219 1297 269 1403 c 128,-1,5
 319 1509 319 1509 423.5 1577 c 128,-1,6
 528 1645 528 1645 698 1645 c 0,7,8
 765 1645 765 1645 831.5 1637.5 c 128,-1,9
 898 1630 898 1630 964 1614 c 1,10,-1
 1150 1614 l 1,11,-1
 1150 0 l 1,12,-1
 964 0 l 1,13,-1
 964 1441 l 1,14,15
 892 1465 892 1465 827.5 1477 c 128,-1,16
 763 1489 763 1489 707 1489 c 0,17,18
 618 1489 618 1489 550 1456 c 128,-1,19
 482 1423 482 1423 443.5 1348.5 c 128,-1,20
 405 1274 405 1274 405 1096 c 2,21,-1
 405 1024 l 1,22,-1
 817 1024 l 1,23,-1
 817 869 l 1,24,-1
 405 869 l 1,25,-1
 405 0 l 1,26,-1
 219 0 l 1,27,-1
 219 869 l 1,28,-1
 2 869 l 1,0,-1
EndSplineSet
EndChar

StartChar: uni204F
Encoding: 8271 8271 235
Width: 1229
Flags: HW
LayerCount: 2
Fore
SplineSet
804 -310 m 5,0,1
 732 -291 732 -291 694.5 -255.5 c 132,-1,2
 657 -220 657 -220 634.5 -165.5 c 132,-1,3
 612 -111 612 -111 612 -34 c 5,4,5
 705 -34 705 -34 749 18.5 c 132,-1,6
 793 71 793 71 793 131 c 4,7,8
 793 200 793 200 744 247.5 c 132,-1,9
 695 295 695 295 630 295 c 4,10,11
 546 295 546 295 485 222.5 c 132,-1,12
 424 150 424 150 424 24 c 4,13,14
 424 -86 424 -86 472 -183.5 c 132,-1,15
 520 -281 520 -281 602.5 -350 c 132,-1,16
 685 -419 685 -419 804 -434 c 5,17,-1
 804 -310 l 5,0,1
793 985 m 4,18,19
 793 1053 793 1053 744.5 1100.5 c 132,-1,20
 696 1148 696 1148 630 1148 c 260,21,22
 564 1148 564 1148 515.5 1100.5 c 132,-1,23
 467 1053 467 1053 467 985 c 4,24,25
 467 918 467 918 515 870 c 132,-1,26
 563 822 563 822 630 822 c 260,27,28
 697 822 697 822 745 870 c 132,-1,29
 793 918 793 918 793 985 c 4,18,19
EndSplineSet
EndChar
